<svg width="484" height="484" viewBox="0 0 484 484" fill="none" xmlns="http://www.w3.org/2000/svg">
<rect width="484" height="484" rx="40" fill="#15021E"/>
<path fill-rule="evenodd" clip-rule="evenodd" d="M199 242.494C199.084 230.929 203.692 219.867 211.821 211.72C219.95 203.572 230.939 199 242.393 199C253.847 199 264.837 203.572 272.965 211.72C281.094 219.867 285.703 230.929 285.786 242.494C285.703 254.058 281.094 265.12 272.965 273.268C264.837 281.415 253.847 285.987 242.393 285.987C230.939 285.987 219.95 281.415 211.821 273.268C203.692 265.12 199.084 254.058 199 242.494V242.494Z" fill="#F9E2AF"/>
<path fill-rule="evenodd" clip-rule="evenodd" d="M81 342.5C81.0434 336.518 83.4331 330.795 87.6479 326.58C91.8628 322.365 97.561 320 103.5 320C109.439 320 115.137 322.365 119.352 326.58C123.567 330.795 125.957 336.518 126 342.5C125.957 348.482 123.567 354.205 119.352 358.42C115.137 362.635 109.439 365 103.5 365C97.561 365 91.8628 362.635 87.6479 358.42C83.4331 354.205 81.0434 348.482 81 342.5Z" fill="#74C7EC"/>
<path fill-rule="evenodd" clip-rule="evenodd" d="M122 389C122.031 384.746 123.73 380.676 126.727 377.679C129.725 374.682 133.777 373 138 373C142.223 373 146.275 374.682 149.273 377.679C152.27 380.676 153.969 384.746 154 389C153.969 393.254 152.27 397.324 149.273 400.321C146.275 403.318 142.223 405 138 405C133.777 405 129.725 403.318 126.727 400.321C123.73 397.324 122.031 393.254 122 389Z" fill="#89DCEB"/>
<path fill-rule="evenodd" clip-rule="evenodd" d="M167 415.5C167.018 412.974 168.027 410.558 169.807 408.778C171.587 406.999 173.992 406 176.5 406C179.008 406 181.413 406.999 183.193 408.778C184.973 410.558 185.982 412.974 186 415.5C185.982 418.026 184.973 420.442 183.193 422.222C181.413 424.001 179.008 425 176.5 425C173.992 425 171.587 424.001 169.807 422.222C168.027 420.442 167.018 418.026 167 415.5Z" fill="#7EC495"/>
<path fill-rule="evenodd" clip-rule="evenodd" d="M199 424.5C199.013 422.772 199.703 421.119 200.921 419.901C202.138 418.683 203.784 418 205.5 418C207.216 418 208.862 418.683 210.079 419.901C211.297 421.119 211.987 422.772 212 424.5C211.987 426.228 211.297 427.881 210.079 429.099C208.862 430.317 207.216 431 205.5 431C203.784 431 202.138 430.317 200.921 429.099C199.703 427.881 199.013 426.228 199 424.5Z" fill="#F5E0DC"/>
<path fill-rule="evenodd" clip-rule="evenodd" d="M90 214.5C90.0434 208.518 92.4331 202.795 96.6479 198.58C100.863 194.365 106.561 192 112.5 192C118.439 192 124.137 194.365 128.352 198.58C132.567 202.795 134.957 208.518 135 214.5C134.957 220.482 132.567 226.205 128.352 230.42C124.137 234.635 118.439 237 112.5 237C106.561 237 100.863 234.635 96.6479 230.42C92.4331 226.205 90.0434 220.482 90 214.5Z" fill="#CBA6F7"/>
<path fill-rule="evenodd" clip-rule="evenodd" d="M134 175C134.029 171.012 135.622 167.197 138.432 164.387C141.242 161.577 145.041 160 149 160C152.959 160 156.758 161.577 159.568 164.387C162.378 167.197 163.971 171.012 164 175C163.971 178.988 162.378 182.803 159.568 185.613C156.758 188.423 152.959 190 149 190C145.041 190 141.242 188.423 138.432 185.613C135.622 182.803 134.029 178.988 134 175Z" fill="#EBA0AC"/>
<path fill-rule="evenodd" clip-rule="evenodd" d="M175 157.5C175.018 154.974 176.027 152.558 177.807 150.778C179.587 148.999 181.992 148 184.5 148C187.008 148 189.413 148.999 191.193 150.778C192.973 152.558 193.982 154.974 194 157.5C193.982 160.026 192.973 162.442 191.193 164.222C189.413 166.001 187.008 167 184.5 167C181.992 167 179.587 166.001 177.807 164.222C176.027 162.442 175.018 160.026 175 157.5Z" fill="#FAB387"/>
<path fill-rule="evenodd" clip-rule="evenodd" d="M211 154.5C211.013 152.772 211.703 151.119 212.921 149.901C214.138 148.683 215.784 148 217.5 148C219.216 148 220.862 148.683 222.079 149.901C223.297 151.119 223.987 152.772 224 154.5C223.987 156.228 223.297 157.881 222.079 159.099C220.862 160.317 219.216 161 217.5 161C215.784 161 214.138 160.317 212.921 159.099C211.703 157.881 211.013 156.228 211 154.5Z" fill="#F5E0DC"/>
<path fill-rule="evenodd" clip-rule="evenodd" d="M62 278.5C62.053 271.188 64.9737 264.194 70.1252 259.042C75.2767 253.891 82.2412 251 89.5 251C96.7588 251 103.723 253.891 108.875 259.042C114.026 264.194 116.947 271.188 117 278.5C116.947 285.812 114.026 292.806 108.875 297.958C103.723 303.109 96.7588 306 89.5 306C82.2412 306 75.2767 303.109 70.1252 297.958C64.9737 292.806 62.053 285.812 62 278.5V278.5Z" fill="#B4BEFE"/>
<path fill-rule="evenodd" clip-rule="evenodd" d="M141.5 79C147.482 79.0434 153.205 81.4331 157.42 85.6479C161.635 89.8628 164 95.561 164 101.5C164 107.439 161.635 113.137 157.42 117.352C153.205 121.567 147.482 123.957 141.5 124C135.518 123.957 129.795 121.567 125.58 117.352C121.365 113.137 119 107.439 119 101.5C119 95.5609 121.365 89.8628 125.58 85.6479C129.795 81.433 135.518 79.0434 141.5 79Z" fill="#74C7EC"/>
<path fill-rule="evenodd" clip-rule="evenodd" d="M95 120C99.2542 120.031 103.324 121.73 106.321 124.727C109.318 127.725 111 131.777 111 136C111 140.223 109.318 144.275 106.321 147.273C103.324 150.27 99.2542 151.969 95 152C90.7458 151.969 86.6764 150.27 83.6792 147.273C80.682 144.275 79 140.223 79 136C79 131.777 80.682 127.725 83.6792 124.727C86.6764 121.73 90.7458 120.031 95 120Z" fill="#89DCEB"/>
<path fill-rule="evenodd" clip-rule="evenodd" d="M68.5 165C71.0259 165.018 73.4421 166.027 75.2217 167.807C77.0013 169.587 78 171.992 78 174.5C78 177.008 77.0013 179.413 75.2217 181.193C73.4421 182.973 71.0259 183.982 68.5 184C65.9741 183.982 63.5579 182.973 61.7783 181.193C59.9987 179.413 59 177.008 59 174.5C59 171.992 59.9987 169.587 61.7783 167.807C63.5579 166.027 65.9741 165.018 68.5 165Z" fill="#7EC495"/>
<path fill-rule="evenodd" clip-rule="evenodd" d="M59.5 197C61.2283 197.013 62.8814 197.703 64.0991 198.921C65.3167 200.138 66 201.784 66 203.5C66 205.216 65.3167 206.862 64.0991 208.079C62.8814 209.297 61.2283 209.987 59.5 210C57.7717 209.987 56.1186 209.297 54.9009 208.079C53.6833 206.862 53 205.216 53 203.5C53 201.784 53.6833 200.138 54.9009 198.921C56.1186 197.703 57.7717 197.013 59.5 197Z" fill="#F5E0DC"/>
<path fill-rule="evenodd" clip-rule="evenodd" d="M269.5 88C275.482 88.0434 281.205 90.4331 285.42 94.6479C289.635 98.8628 292 104.561 292 110.5C292 116.439 289.635 122.137 285.42 126.352C281.205 130.567 275.482 132.957 269.5 133C263.518 132.957 257.795 130.567 253.58 126.352C249.365 122.137 247 116.439 247 110.5C247 104.561 249.365 98.8628 253.58 94.6479C257.795 90.433 263.518 88.0434 269.5 88Z" fill="#CBA6F7"/>
<path fill-rule="evenodd" clip-rule="evenodd" d="M309 132C312.988 132.029 316.803 133.622 319.613 136.432C322.423 139.242 324 143.041 324 147C324 150.959 322.423 154.758 319.613 157.568C316.803 160.378 312.988 161.971 309 162C305.012 161.971 301.197 160.378 298.387 157.568C295.577 154.758 294 150.959 294 147C294 143.041 295.577 139.242 298.387 136.432C301.197 133.622 305.012 132.029 309 132Z" fill="#EBA0AC"/>
<path fill-rule="evenodd" clip-rule="evenodd" d="M326.5 173C329.026 173.018 331.442 174.027 333.222 175.807C335.001 177.587 336 179.992 336 182.5C336 185.008 335.001 187.413 333.222 189.193C331.442 190.973 329.026 191.982 326.5 192C323.974 191.982 321.558 190.973 319.778 189.193C317.999 187.413 317 185.008 317 182.5C317 179.992 317.999 177.587 319.778 175.807C321.558 174.027 323.974 173.018 326.5 173Z" fill="#FAB387"/>
<path fill-rule="evenodd" clip-rule="evenodd" d="M329.5 209C331.228 209.013 332.881 209.703 334.099 210.921C335.317 212.138 336 213.784 336 215.5C336 217.216 335.317 218.862 334.099 220.079C332.881 221.297 331.228 221.987 329.5 222C327.772 221.987 326.119 221.297 324.901 220.079C323.683 218.862 323 217.216 323 215.5C323 213.784 323.683 212.138 324.901 210.921C326.119 209.703 327.772 209.013 329.5 209Z" fill="#F5E0DC"/>
<path fill-rule="evenodd" clip-rule="evenodd" d="M205.5 60C212.812 60.053 219.806 62.9737 224.958 68.1252C230.109 73.2767 233 80.2412 233 87.5C233 94.7588 230.109 101.723 224.958 106.875C219.806 112.026 212.812 114.947 205.5 115C198.188 114.947 191.194 112.026 186.042 106.875C180.891 101.723 178 94.7588 178 87.5C178 80.2412 180.891 73.2767 186.042 68.1252C191.194 62.9737 198.188 60.053 205.5 60V60Z" fill="#B4BEFE"/>
<path fill-rule="evenodd" clip-rule="evenodd" d="M410 141.5C409.957 147.482 407.567 153.205 403.352 157.42C399.137 161.635 393.439 164 387.5 164C381.561 164 375.863 161.635 371.648 157.42C367.433 153.205 365.043 147.482 365 141.5C365.043 135.518 367.433 129.795 371.648 125.58C375.863 121.365 381.561 119 387.5 119C393.439 119 399.137 121.365 403.352 125.58C407.567 129.795 409.957 135.518 410 141.5Z" fill="#74C7EC"/>
<path fill-rule="evenodd" clip-rule="evenodd" d="M369 95C368.969 99.2542 367.27 103.324 364.273 106.321C361.275 109.318 357.223 111 353 111C348.777 111 344.725 109.318 341.727 106.321C338.73 103.324 337.031 99.2542 337 95C337.031 90.7458 338.73 86.6764 341.727 83.6792C344.725 80.682 348.777 79 353 79C357.223 79 361.275 80.682 364.273 83.6792C367.27 86.6764 368.969 90.7458 369 95Z" fill="#89DCEB"/>
<path fill-rule="evenodd" clip-rule="evenodd" d="M324 68.5C323.982 71.0259 322.973 73.4421 321.193 75.2217C319.413 77.0013 317.008 78 314.5 78C311.992 78 309.587 77.0013 307.807 75.2217C306.027 73.4421 305.018 71.0259 305 68.5C305.018 65.9741 306.027 63.5579 307.807 61.7783C309.587 59.9987 311.992 59 314.5 59C317.008 59 319.414 59.9987 321.193 61.7783C322.973 63.5579 323.982 65.9741 324 68.5Z" fill="#7EC495"/>
<path fill-rule="evenodd" clip-rule="evenodd" d="M292 59.5C291.987 61.2283 291.297 62.8814 290.079 64.0991C288.862 65.3167 287.216 66 285.5 66C283.784 66 282.138 65.3167 280.921 64.0991C279.703 62.8814 279.013 61.2283 279 59.5C279.013 57.7717 279.703 56.1186 280.921 54.9009C282.138 53.6833 283.784 53 285.5 53C287.216 53 288.862 53.6833 290.079 54.9009C291.297 56.1186 291.987 57.7717 292 59.5Z" fill="#F5E0DC"/>
<path fill-rule="evenodd" clip-rule="evenodd" d="M401 269.5C400.957 275.482 398.567 281.205 394.352 285.42C390.137 289.635 384.439 292 378.5 292C372.561 292 366.863 289.635 362.648 285.42C358.433 281.205 356.043 275.482 356 269.5C356.043 263.518 358.433 257.795 362.648 253.58C366.863 249.365 372.561 247 378.5 247C384.439 247 390.137 249.365 394.352 253.58C398.567 257.795 400.957 263.518 401 269.5Z" fill="#CBA6F7"/>
<path fill-rule="evenodd" clip-rule="evenodd" d="M357 309C356.971 312.988 355.378 316.803 352.568 319.613C349.758 322.423 345.959 324 342 324C338.041 324 334.242 322.423 331.432 319.613C328.622 316.803 327.029 312.988 327 309C327.029 305.012 328.622 301.197 331.432 298.387C334.242 295.577 338.041 294 342 294C345.959 294 349.758 295.577 352.568 298.387C355.378 301.197 356.971 305.012 357 309Z" fill="#EBA0AC"/>
<path fill-rule="evenodd" clip-rule="evenodd" d="M316 326.5C315.982 329.026 314.973 331.442 313.193 333.222C311.413 335.001 309.008 336 306.5 336C303.992 336 301.587 335.001 299.807 333.222C298.027 331.442 297.018 329.026 297 326.5C297.018 323.974 298.027 321.558 299.807 319.778C301.587 317.999 303.992 317 306.5 317C309.008 317 311.414 317.999 313.193 319.778C314.973 321.558 315.982 323.974 316 326.5Z" fill="#FAB387"/>
<path fill-rule="evenodd" clip-rule="evenodd" d="M280 329.5C279.987 331.228 279.297 332.881 278.079 334.099C276.862 335.317 275.216 336 273.5 336C271.784 336 270.138 335.317 268.921 334.099C267.703 332.881 267.013 331.228 267 329.5C267.013 327.772 267.703 326.119 268.921 324.901C270.138 323.683 271.784 323 273.5 323C275.216 323 276.862 323.683 278.079 324.901C279.297 326.119 279.987 327.772 280 329.5Z" fill="#F5E0DC"/>
<path fill-rule="evenodd" clip-rule="evenodd" d="M429 205.5C428.947 212.812 426.026 219.806 420.875 224.958C415.723 230.109 408.759 233 401.5 233C394.241 233 387.277 230.109 382.125 224.958C376.974 219.806 374.053 212.812 374 205.5C374.053 198.188 376.974 191.194 382.125 186.042C387.277 180.891 394.241 178 401.5 178C408.759 178 415.723 180.891 420.875 186.042C426.026 191.194 428.947 198.188 429 205.5V205.5Z" fill="#B4BEFE"/>
<path fill-rule="evenodd" clip-rule="evenodd" d="M346.5 404C340.518 403.957 334.795 401.567 330.58 397.352C326.365 393.137 324 387.439 324 381.5C324 375.561 326.365 369.863 330.58 365.648C334.795 361.433 340.518 359.043 346.5 359C352.482 359.043 358.205 361.433 362.42 365.648C366.635 369.863 369 375.561 369 381.5C369 387.439 366.635 393.137 362.42 397.352C358.205 401.567 352.482 403.957 346.5 404Z" fill="#74C7EC"/>
<path fill-rule="evenodd" clip-rule="evenodd" d="M393 363C388.746 362.969 384.676 361.27 381.679 358.273C378.682 355.275 377 351.223 377 347C377 342.777 378.682 338.725 381.679 335.727C384.676 332.73 388.746 331.031 393 331C397.254 331.031 401.324 332.73 404.321 335.727C407.318 338.725 409 342.777 409 347C409 351.223 407.318 355.275 404.321 358.273C401.324 361.27 397.254 362.969 393 363Z" fill="#89DCEB"/>
<path fill-rule="evenodd" clip-rule="evenodd" d="M419.5 318C416.974 317.982 414.558 316.973 412.778 315.193C410.999 313.413 410 311.008 410 308.5C410 305.992 410.999 303.587 412.778 301.807C414.558 300.027 416.974 299.018 419.5 299C422.026 299.018 424.442 300.027 426.222 301.807C428.001 303.587 429 305.992 429 308.5C429 311.008 428.001 313.413 426.222 315.193C424.442 316.973 422.026 317.982 419.5 318Z" fill="#7EC495"/>
<path fill-rule="evenodd" clip-rule="evenodd" d="M428.5 286C426.772 285.987 425.119 285.297 423.901 284.079C422.683 282.862 422 281.216 422 279.5C422 277.784 422.683 276.138 423.901 274.921C425.119 273.703 426.772 273.013 428.5 273C430.228 273.013 431.881 273.703 433.099 274.921C434.317 276.138 435 277.784 435 279.5C435 281.216 434.317 282.862 433.099 284.079C431.881 285.297 430.228 285.987 428.5 286Z" fill="#F5E0DC"/>
<path fill-rule="evenodd" clip-rule="evenodd" d="M218.5 395C212.518 394.957 206.795 392.567 202.58 388.352C198.365 384.137 196 378.439 196 372.5C196 366.561 198.365 360.863 202.58 356.648C206.795 352.433 212.518 350.043 218.5 350C224.482 350.043 230.205 352.433 234.42 356.648C238.635 360.863 241 366.561 241 372.5C241 378.439 238.635 384.137 234.42 388.352C230.205 392.567 224.482 394.957 218.5 395Z" fill="#CBA6F7"/>
<path fill-rule="evenodd" clip-rule="evenodd" d="M179 351C175.012 350.971 171.197 349.378 168.387 346.568C165.577 343.758 164 339.959 164 336C164 332.041 165.577 328.242 168.387 325.432C171.197 322.622 175.012 321.029 179 321C182.988 321.029 186.803 322.622 189.613 325.432C192.423 328.242 194 332.041 194 336C194 339.959 192.423 343.758 189.613 346.568C186.803 349.378 182.988 350.971 179 351Z" fill="#EBA0AC"/>
<path fill-rule="evenodd" clip-rule="evenodd" d="M161.5 310C158.974 309.982 156.558 308.973 154.778 307.193C152.999 305.413 152 303.008 152 300.5C152 297.992 152.999 295.587 154.778 293.807C156.558 292.027 158.974 291.018 161.5 291C164.026 291.018 166.442 292.027 168.222 293.807C170.001 295.587 171 297.992 171 300.5C171 303.008 170.001 305.413 168.222 307.193C166.442 308.973 164.026 309.982 161.5 310Z" fill="#FAB387"/>
<path fill-rule="evenodd" clip-rule="evenodd" d="M158.5 274C156.772 273.987 155.119 273.297 153.901 272.079C152.683 270.862 152 269.216 152 267.5C152 265.784 152.683 264.138 153.901 262.921C155.119 261.703 156.772 261.013 158.5 261C160.228 261.013 161.881 261.703 163.099 262.921C164.317 264.138 165 265.784 165 267.5C165 269.216 164.317 270.862 163.099 272.079C161.881 273.297 160.228 273.987 158.5 274Z" fill="#F5E0DC"/>
<path fill-rule="evenodd" clip-rule="evenodd" d="M282.5 423C275.188 422.947 268.194 420.026 263.042 414.875C257.891 409.723 255 402.759 255 395.5C255 388.241 257.891 381.277 263.042 376.125C268.194 370.974 275.188 368.053 282.5 368C289.812 368.053 296.806 370.974 301.958 376.125C307.109 381.277 310 388.241 310 395.5C310 402.759 307.109 409.723 301.958 414.875C296.806 420.026 289.812 422.947 282.5 423V423Z" fill="#B4BEFE"/>
</svg>
