<svg width="465" height="465" viewBox="0 0 465 465" fill="none" xmlns="http://www.w3.org/2000/svg">
<rect width="465" height="465" fill="url(#paint0_linear_279_714)"/>
<rect width="465" height="465" fill="url(#paint1_linear_279_714)"/>
<path fill-rule="evenodd" clip-rule="evenodd" d="M191.097 232.79C191.181 221.225 195.79 210.163 203.918 202.016C212.047 193.868 223.036 189.296 234.49 189.296C245.944 189.296 256.934 193.868 265.062 202.016C273.191 210.163 277.8 221.225 277.884 232.79C277.8 244.354 273.191 255.416 265.062 263.564C256.934 271.711 245.944 276.283 234.49 276.283C223.036 276.283 212.047 271.711 203.918 263.564C195.79 255.416 191.181 244.354 191.097 232.79V232.79Z" fill="#F9E2AF"/>
<path fill-rule="evenodd" clip-rule="evenodd" d="M212.792 349.688C212.792 343.878 215.079 338.305 219.148 334.197C223.217 330.088 228.736 327.78 234.491 327.78C240.246 327.78 245.765 330.088 249.834 334.197C253.903 338.305 256.19 343.878 256.19 349.688C256.19 355.498 253.903 361.071 249.834 365.179C245.765 369.288 240.246 371.596 234.491 371.596C228.736 371.596 223.217 369.288 219.148 365.179C215.079 361.071 212.792 355.498 212.792 349.688V349.688Z" fill="#7EC495"/>
<path fill-rule="evenodd" clip-rule="evenodd" d="M313.225 291.228C313.225 285.417 315.511 279.845 319.58 275.736C323.649 271.628 329.168 269.32 334.923 269.32C340.678 269.32 346.197 271.628 350.266 275.736C354.336 279.845 356.622 285.417 356.622 291.228C356.622 297.038 354.336 302.611 350.266 306.719C346.197 310.828 340.678 313.136 334.923 313.136C329.168 313.136 323.649 310.828 319.58 306.719C315.511 302.611 313.225 297.038 313.225 291.228V291.228Z" fill="#7EC495"/>
<path fill-rule="evenodd" clip-rule="evenodd" d="M313.084 174.089C313.084 168.278 315.371 162.706 319.44 158.597C323.509 154.489 329.028 152.181 334.783 152.181C340.538 152.181 346.057 154.489 350.126 158.597C354.195 162.706 356.482 168.278 356.482 174.089C356.482 179.899 354.195 185.472 350.126 189.58C346.057 193.689 340.538 195.997 334.783 195.997C329.028 195.997 323.509 193.689 319.44 189.58C315.371 185.472 313.084 179.899 313.084 174.089V174.089Z" fill="#7EC495"/>
<path fill-rule="evenodd" clip-rule="evenodd" d="M212.956 115.816C212.956 110.006 215.242 104.433 219.311 100.325C223.381 96.2159 228.9 93.9077 234.655 93.9077C240.409 93.9077 245.928 96.2159 249.998 100.325C254.067 104.433 256.353 110.006 256.353 115.816C256.353 121.626 254.067 127.199 249.998 131.307C245.928 135.416 240.409 137.724 234.655 137.724C228.9 137.724 223.381 135.416 219.311 131.307C215.242 127.199 212.956 121.626 212.956 115.816V115.816Z" fill="#7EC495"/>
<path fill-rule="evenodd" clip-rule="evenodd" d="M112.368 174.159C112.368 168.348 114.654 162.776 118.723 158.667C122.792 154.559 128.311 152.25 134.066 152.25C139.821 152.25 145.34 154.559 149.409 158.667C153.479 162.776 155.765 168.348 155.765 174.159C155.765 179.969 153.479 185.542 149.409 189.65C145.34 193.759 139.821 196.067 134.066 196.067C128.311 196.067 122.792 193.759 118.723 189.65C114.654 185.542 112.368 179.969 112.368 174.159V174.159Z" fill="#7EC495"/>
<path fill-rule="evenodd" clip-rule="evenodd" d="M112.633 291.103C112.633 285.293 114.919 279.72 118.988 275.612C123.057 271.503 128.577 269.195 134.331 269.195C140.086 269.195 145.605 271.503 149.675 275.612C153.744 279.72 156.03 285.293 156.03 291.103C156.03 296.913 153.744 302.486 149.675 306.595C145.605 310.703 140.086 313.011 134.331 313.011C128.577 313.011 123.057 310.703 118.988 306.595C114.919 302.486 112.633 296.913 112.633 291.103V291.103Z" fill="#7EC495"/>
<path fill-rule="evenodd" clip-rule="evenodd" d="M296.285 86.5347C296.285 80.7243 298.571 75.1519 302.64 71.0433C306.71 66.9347 312.229 64.6265 317.984 64.6265C323.738 64.6265 329.258 66.9347 333.327 71.0433C337.396 75.1519 339.682 80.7243 339.682 86.5347C339.682 92.3452 337.396 97.9176 333.327 102.026C329.258 106.135 323.738 108.443 317.984 108.443C312.229 108.443 306.71 106.135 302.64 102.026C298.571 97.9176 296.285 92.3452 296.285 86.5347V86.5347Z" fill="#DE7298"/>
<path fill-rule="evenodd" clip-rule="evenodd" d="M379.691 232.58C379.691 226.77 381.977 221.198 386.047 217.089C390.116 212.98 395.635 210.672 401.39 210.672C407.145 210.672 412.664 212.98 416.733 217.089C420.802 221.198 423.088 226.77 423.088 232.58C423.088 238.391 420.802 243.963 416.733 248.072C412.664 252.18 407.145 254.489 401.39 254.489C395.635 254.489 390.116 252.18 386.047 248.072C381.977 243.963 379.691 238.391 379.691 232.58V232.58Z" fill="#DE7298"/>
<path fill-rule="evenodd" clip-rule="evenodd" d="M296.238 378.641C296.238 372.83 298.524 367.258 302.594 363.149C306.663 359.041 312.182 356.733 317.937 356.733C323.692 356.733 329.211 359.041 333.28 363.149C337.349 367.258 339.635 372.83 339.635 378.641C339.635 384.451 337.349 390.024 333.28 394.132C329.211 398.241 323.692 400.549 317.937 400.549C312.182 400.549 306.663 398.241 302.594 394.132C298.524 390.024 296.238 384.451 296.238 378.641V378.641Z" fill="#DE7298"/>
<path fill-rule="evenodd" clip-rule="evenodd" d="M129.246 378.61C129.246 372.799 131.532 367.227 135.601 363.118C139.67 359.01 145.189 356.702 150.944 356.702C156.699 356.702 162.218 359.01 166.287 363.118C170.357 367.227 172.643 372.799 172.643 378.61C172.643 384.42 170.357 389.993 166.287 394.101C162.218 398.21 156.699 400.518 150.944 400.518C145.189 400.518 139.67 398.21 135.601 394.101C131.532 389.993 129.246 384.42 129.246 378.61V378.61Z" fill="#DE7298"/>
<path fill-rule="evenodd" clip-rule="evenodd" d="M45.9019 232.853C45.9019 227.043 48.1879 221.47 52.2572 217.362C56.3265 213.253 61.8456 210.945 67.6004 210.945C73.3552 210.945 78.8743 213.253 82.9435 217.362C87.0128 221.47 89.2989 227.043 89.2989 232.853C89.2989 238.664 87.0128 244.236 82.9435 248.345C78.8743 252.453 73.3552 254.761 67.6004 254.761C61.8456 254.761 56.3265 252.453 52.2572 248.345C48.1879 244.236 45.9019 238.664 45.9019 232.853V232.853Z" fill="#DE7298"/>
<path fill-rule="evenodd" clip-rule="evenodd" d="M129.339 86.6053C129.339 80.7949 131.625 75.2224 135.695 71.1138C139.764 67.0052 145.283 64.697 151.038 64.697C156.793 64.697 162.312 67.0052 166.381 71.1138C170.45 75.2224 172.736 80.7949 172.736 86.6053C172.736 92.4157 170.45 97.9882 166.381 102.097C162.312 106.205 156.793 108.514 151.038 108.514C145.283 108.514 139.764 106.205 135.695 102.097C131.625 97.9882 129.339 92.4157 129.339 86.6053V86.6053Z" fill="#DE7298"/>
<path fill-rule="evenodd" clip-rule="evenodd" d="M220.549 55.993C220.549 52.2579 222.019 48.6758 224.635 46.0347C227.25 43.3936 230.798 41.9099 234.498 41.9099C238.197 41.9099 241.745 43.3936 244.36 46.0347C246.976 48.6758 248.446 52.2579 248.446 55.993C248.446 59.728 246.976 63.3101 244.36 65.9512C241.745 68.5923 238.197 70.076 234.498 70.076C230.798 70.076 227.25 68.5923 224.635 65.9512C222.019 63.3101 220.549 59.728 220.549 55.993V55.993Z" fill="#FAB387"/>
<path fill-rule="evenodd" clip-rule="evenodd" d="M372.73 144.381C372.73 140.646 374.2 137.064 376.815 134.423C379.431 131.782 382.979 130.298 386.678 130.298C390.377 130.298 393.925 131.782 396.541 134.423C399.157 137.064 400.626 140.646 400.626 144.381C400.626 148.116 399.157 151.698 396.541 154.339C393.925 156.98 390.377 158.464 386.678 158.464C382.979 158.464 379.431 156.98 376.815 154.339C374.2 151.698 372.73 148.116 372.73 144.381V144.381Z" fill="#FAB387"/>
<path fill-rule="evenodd" clip-rule="evenodd" d="M372.761 320.798C372.761 317.063 374.23 313.481 376.846 310.84C379.462 308.199 383.01 306.715 386.709 306.715C390.408 306.715 393.956 308.199 396.572 310.84C399.188 313.481 400.657 317.063 400.657 320.798C400.657 324.533 399.188 328.115 396.572 330.757C393.956 333.398 390.408 334.881 386.709 334.881C383.01 334.881 379.462 333.398 376.846 330.757C374.23 328.115 372.761 324.533 372.761 320.798V320.798Z" fill="#FAB387"/>
<path fill-rule="evenodd" clip-rule="evenodd" d="M220.549 409.007C220.549 405.272 222.019 401.69 224.635 399.049C227.25 396.408 230.798 394.924 234.498 394.924C238.197 394.924 241.745 396.408 244.36 399.049C246.976 401.69 248.446 405.272 248.446 409.007C248.446 412.742 246.976 416.324 244.36 418.966C241.745 421.607 238.197 423.09 234.498 423.09C230.798 423.09 227.25 421.607 224.635 418.966C222.019 416.324 220.549 412.742 220.549 409.007V409.007Z" fill="#FAB387"/>
<path fill-rule="evenodd" clip-rule="evenodd" d="M69.2886 320.713C69.2886 316.978 70.7581 313.396 73.3739 310.755C75.9897 308.114 79.5375 306.63 83.2368 306.63C86.9361 306.63 90.4839 308.114 93.0997 310.755C95.7155 313.396 97.185 316.978 97.185 320.713C97.185 324.448 95.7155 328.03 93.0997 330.671C90.4839 333.312 86.9361 334.796 83.2368 334.796C79.5375 334.796 75.9897 333.312 73.3739 330.671C70.7581 328.03 69.2886 324.448 69.2886 320.713V320.713Z" fill="#FAB387"/>
<path fill-rule="evenodd" clip-rule="evenodd" d="M69.3589 144.513C69.3589 140.778 70.8284 137.196 73.4442 134.555C76.06 131.914 79.6078 130.43 83.3071 130.43C87.0064 130.43 90.5542 131.914 93.17 134.555C95.7858 137.196 97.2553 140.778 97.2553 144.513C97.2553 148.248 95.7858 151.83 93.17 154.471C90.5542 157.113 87.0064 158.596 83.3071 158.596C79.6078 158.596 76.06 157.113 73.4442 154.471C70.8284 151.83 69.3589 148.248 69.3589 144.513V144.513Z" fill="#FAB387"/>
<path fill-rule="evenodd" clip-rule="evenodd" d="M166.494 137.263C166.494 133.528 167.963 129.946 170.579 127.305C173.195 124.664 176.743 123.18 180.442 123.18C184.141 123.18 187.689 124.664 190.305 127.305C192.921 129.946 194.39 133.528 194.39 137.263C194.39 140.998 192.921 144.58 190.305 147.221C187.689 149.862 184.141 151.346 180.442 151.346C176.743 151.346 173.195 149.862 170.579 147.221C167.963 144.58 166.494 140.998 166.494 137.263V137.263Z" fill="#89DCEB"/>
<path fill-rule="evenodd" clip-rule="evenodd" d="M275.595 137.318C275.595 133.583 277.064 130.001 279.68 127.36C282.296 124.719 285.844 123.235 289.543 123.235C293.242 123.235 296.79 124.719 299.406 127.36C302.022 130.001 303.491 133.583 303.491 137.318C303.491 141.053 302.022 144.635 299.406 147.276C296.79 149.917 293.242 151.401 289.543 151.401C285.844 151.401 282.296 149.917 279.68 147.276C277.064 144.635 275.595 141.053 275.595 137.318V137.318Z" fill="#89DCEB"/>
<path fill-rule="evenodd" clip-rule="evenodd" d="M329.752 232.792C329.752 229.057 331.222 225.475 333.838 222.834C336.454 220.193 340.001 218.709 343.701 218.709C347.4 218.709 350.948 220.193 353.564 222.834C356.179 225.475 357.649 229.057 357.649 232.792C357.649 236.527 356.179 240.109 353.564 242.75C350.948 245.391 347.4 246.875 343.701 246.875C340.001 246.875 336.454 245.391 333.838 242.75C331.222 240.109 329.752 236.527 329.752 232.792V232.792Z" fill="#89DCEB"/>
<path fill-rule="evenodd" clip-rule="evenodd" d="M275.813 327.791C275.813 324.056 277.283 320.474 279.899 317.833C282.515 315.192 286.062 313.708 289.762 313.708C293.461 313.708 297.009 315.192 299.625 317.833C302.24 320.474 303.71 324.056 303.71 327.791C303.71 331.526 302.24 335.108 299.625 337.749C297.009 340.39 293.461 341.874 289.762 341.874C286.062 341.874 282.515 340.39 279.899 337.749C277.283 335.108 275.813 331.526 275.813 327.791V327.791Z" fill="#89DCEB"/>
<path fill-rule="evenodd" clip-rule="evenodd" d="M166.494 327.791C166.494 324.056 167.963 320.474 170.579 317.833C173.195 315.192 176.743 313.708 180.442 313.708C184.141 313.708 187.689 315.192 190.305 317.833C192.921 320.474 194.39 324.056 194.39 327.791C194.39 331.526 192.921 335.108 190.305 337.749C187.689 340.39 184.141 341.874 180.442 341.874C176.743 341.874 173.195 340.39 170.579 337.749C167.963 335.108 166.494 331.526 166.494 327.791V327.791Z" fill="#89DCEB"/>
<path fill-rule="evenodd" clip-rule="evenodd" d="M112.337 232.792C112.337 229.057 113.806 225.475 116.422 222.834C119.038 220.193 122.586 218.709 126.285 218.709C129.984 218.709 133.532 220.193 136.148 222.834C138.764 225.475 140.233 229.057 140.233 232.792C140.233 236.527 138.764 240.109 136.148 242.75C133.532 245.391 129.984 246.875 126.285 246.875C122.586 246.875 119.038 245.391 116.422 242.75C113.806 240.109 112.337 236.527 112.337 232.792V232.792Z" fill="#89DCEB"/>
<path fill-rule="evenodd" clip-rule="evenodd" d="M317.099 130.355C317.099 127.948 318.046 125.639 319.732 123.937C321.418 122.235 323.705 121.278 326.089 121.278C328.473 121.278 330.76 122.235 332.446 123.937C334.132 125.639 335.079 127.948 335.079 130.355C335.079 132.762 334.132 135.071 332.446 136.773C330.76 138.476 328.473 139.432 326.089 139.432C323.705 139.432 321.418 138.476 319.732 136.773C318.046 135.071 317.099 132.762 317.099 130.355V130.355Z" fill="#B4BEFE"/>
<path fill-rule="evenodd" clip-rule="evenodd" d="M267.573 102.15C267.573 99.7422 268.52 97.4335 270.206 95.7313C271.892 94.0291 274.178 93.0728 276.563 93.0728C278.947 93.0728 281.234 94.0291 282.919 95.7313C284.605 97.4335 285.553 99.7422 285.553 102.15C285.553 104.557 284.605 106.866 282.919 108.568C281.234 110.27 278.947 111.226 276.563 111.226C274.178 111.226 271.892 110.27 270.206 108.568C268.52 106.866 267.573 104.557 267.573 102.15V102.15Z" fill="#B4BEFE"/>
<path fill-rule="evenodd" clip-rule="evenodd" d="M183.582 101.729C183.582 99.3216 184.529 97.0128 186.215 95.3106C187.901 93.6084 190.188 92.6521 192.572 92.6521C194.956 92.6521 197.243 93.6084 198.929 95.3106C200.615 97.0128 201.562 99.3216 201.562 101.729C201.562 104.136 200.615 106.445 198.929 108.147C197.243 109.849 194.956 110.806 192.572 110.806C190.188 110.806 187.901 109.849 186.215 108.147C184.529 106.445 183.582 104.136 183.582 101.729V101.729Z" fill="#B4BEFE"/>
<path fill-rule="evenodd" clip-rule="evenodd" d="M134.835 130.401C134.835 127.994 135.782 125.685 137.468 123.983C139.154 122.281 141.441 121.325 143.825 121.325C146.209 121.325 148.496 122.281 150.182 123.983C151.868 125.685 152.815 127.994 152.815 130.401C152.815 132.809 151.868 135.118 150.182 136.82C148.496 138.522 146.209 139.478 143.825 139.478C141.441 139.478 139.154 138.522 137.468 136.82C135.782 135.118 134.835 132.809 134.835 130.401V130.401Z" fill="#B4BEFE"/>
<path fill-rule="evenodd" clip-rule="evenodd" d="M92.543 204.321C92.543 201.914 93.4901 199.605 95.176 197.903C96.862 196.2 99.1486 195.244 101.533 195.244C103.917 195.244 106.204 196.2 107.89 197.903C109.576 199.605 110.523 201.914 110.523 204.321C110.523 206.728 109.576 209.037 107.89 210.739C106.204 212.441 103.917 213.398 101.533 213.398C99.1486 213.398 96.862 212.441 95.176 210.739C93.4901 209.037 92.543 206.728 92.543 204.321V204.321Z" fill="#B4BEFE"/>
<path fill-rule="evenodd" clip-rule="evenodd" d="M92.8398 260.895C92.8398 258.487 93.787 256.179 95.4729 254.476C97.1588 252.774 99.4455 251.818 101.83 251.818C104.214 251.818 106.501 252.774 108.187 254.476C109.872 256.179 110.82 258.487 110.82 260.895C110.82 263.302 109.872 265.611 108.187 267.313C106.501 269.015 104.214 269.971 101.83 269.971C99.4455 269.971 97.1588 269.015 95.4729 267.313C93.787 265.611 92.8398 263.302 92.8398 260.895V260.895Z" fill="#B4BEFE"/>
<path fill-rule="evenodd" clip-rule="evenodd" d="M134.453 334.72C134.453 332.313 135.4 330.004 137.086 328.302C138.772 326.6 141.058 325.643 143.443 325.643C145.827 325.643 148.113 326.6 149.799 328.302C151.485 330.004 152.432 332.313 152.432 334.72C152.432 337.127 151.485 339.436 149.799 341.138C148.113 342.841 145.827 343.797 143.443 343.797C141.058 343.797 138.772 342.841 137.086 341.138C135.4 339.436 134.453 337.127 134.453 334.72V334.72Z" fill="#B4BEFE"/>
<path fill-rule="evenodd" clip-rule="evenodd" d="M183.426 363.299C183.426 360.892 184.373 358.583 186.059 356.881C187.745 355.179 190.032 354.222 192.416 354.222C194.8 354.222 197.087 355.179 198.773 356.881C200.459 358.583 201.406 360.892 201.406 363.299C201.406 365.707 200.459 368.015 198.773 369.717C197.087 371.42 194.8 372.376 192.416 372.376C190.032 372.376 187.745 371.42 186.059 369.717C184.373 368.015 183.426 365.707 183.426 363.299V363.299Z" fill="#B4BEFE"/>
<path fill-rule="evenodd" clip-rule="evenodd" d="M267.667 362.917C267.667 360.51 268.614 358.201 270.3 356.499C271.985 354.797 274.272 353.84 276.656 353.84C279.041 353.84 281.327 354.797 283.013 356.499C284.699 358.201 285.646 360.51 285.646 362.917C285.646 365.324 284.699 367.633 283.013 369.335C281.327 371.038 279.041 371.994 276.656 371.994C274.272 371.994 271.985 371.038 270.3 369.335C268.614 367.633 267.667 365.324 267.667 362.917V362.917Z" fill="#B4BEFE"/>
<path fill-rule="evenodd" clip-rule="evenodd" d="M317.294 334.884C317.294 332.476 318.242 330.168 319.928 328.465C321.613 326.763 323.9 325.807 326.284 325.807C328.669 325.807 330.955 326.763 332.641 328.465C334.327 330.168 335.274 332.476 335.274 334.884C335.274 337.291 334.327 339.6 332.641 341.302C330.955 343.004 328.669 343.961 326.284 343.961C323.9 343.961 321.613 343.004 319.928 341.302C318.242 339.6 317.294 337.291 317.294 334.884V334.884Z" fill="#B4BEFE"/>
<path fill-rule="evenodd" clip-rule="evenodd" d="M358.51 261.292C358.51 258.885 359.457 256.576 361.143 254.874C362.829 253.172 365.116 252.215 367.5 252.215C369.884 252.215 372.171 253.172 373.857 254.874C375.543 256.576 376.49 258.885 376.49 261.292C376.49 263.699 375.543 266.008 373.857 267.71C372.171 269.413 369.884 270.369 367.5 270.369C365.116 270.369 362.829 269.413 361.143 267.71C359.457 266.008 358.51 263.699 358.51 261.292V261.292Z" fill="#B4BEFE"/>
<path fill-rule="evenodd" clip-rule="evenodd" d="M358.658 203.861C358.658 201.453 359.605 199.145 361.291 197.442C362.977 195.74 365.264 194.784 367.648 194.784C370.032 194.784 372.319 195.74 374.005 197.442C375.691 199.145 376.638 201.453 376.638 203.861C376.638 206.268 375.691 208.577 374.005 210.279C372.319 211.981 370.032 212.938 367.648 212.938C365.264 212.938 362.977 211.981 361.291 210.279C359.605 208.577 358.658 206.268 358.658 203.861V203.861Z" fill="#B4BEFE"/>
<defs>
<linearGradient id="paint0_linear_279_714" x1="232.5" y1="0" x2="232.5" y2="465" gradientUnits="userSpaceOnUse">
<stop stop-color="#1C1134"/>
<stop offset="1" stop-color="#2B2155"/>
</linearGradient>
<linearGradient id="paint1_linear_279_714" x1="232.5" y1="0" x2="232.5" y2="465" gradientUnits="userSpaceOnUse">
<stop stop-color="#16021F"/>
<stop offset="1" stop-color="#0D0012"/>
</linearGradient>
</defs>
</svg>
