<svg width="1492" height="484" viewBox="0 0 1492 484" fill="none" xmlns="http://www.w3.org/2000/svg">
<rect width="1492" height="484" rx="40" fill="#15021E"/>
<path fill-rule="evenodd" clip-rule="evenodd" d="M202.131 242.932C202.196 233.971 205.767 225.4 212.066 219.087C218.364 212.773 226.88 209.23 235.755 209.23C244.63 209.23 253.146 212.773 259.444 219.087C265.743 225.4 269.314 233.971 269.379 242.932C269.314 251.893 265.743 260.465 259.444 266.778C253.146 273.091 244.63 276.634 235.755 276.634C226.88 276.634 218.364 273.091 212.066 266.778C205.767 260.465 202.196 251.893 202.131 242.932V242.932Z" fill="#F9E2AF"/>
<path fill-rule="evenodd" clip-rule="evenodd" d="M110.728 320.405C110.761 315.768 112.614 311.332 115.881 308.066C119.148 304.799 123.565 302.965 128.169 302.965C132.772 302.965 137.189 304.799 140.456 308.066C143.723 311.332 145.576 315.768 145.609 320.405C145.576 325.042 143.723 329.477 140.456 332.744C137.189 336.011 132.772 337.844 128.169 337.844C123.565 337.844 119.148 336.011 115.881 332.744C112.614 329.477 110.761 325.042 110.728 320.405Z" fill="#74C7EC"/>
<path fill-rule="evenodd" clip-rule="evenodd" d="M142.509 356.446C142.533 353.149 143.85 349.995 146.173 347.672C148.497 345.349 151.638 344.045 154.911 344.045C158.185 344.045 161.326 345.349 163.649 347.672C165.972 349.995 167.29 353.149 167.314 356.446C167.29 359.744 165.972 362.898 163.649 365.221C161.326 367.544 158.185 368.848 154.911 368.848C151.638 368.848 148.497 367.544 146.173 365.221C143.85 362.898 142.533 359.744 142.509 356.446Z" fill="#89DCEB"/>
<path fill-rule="evenodd" clip-rule="evenodd" d="M177.391 376.986C177.405 375.028 178.187 373.156 179.566 371.776C180.946 370.397 182.811 369.623 184.754 369.623C186.698 369.623 188.563 370.397 189.943 371.776C191.322 373.156 192.104 375.028 192.118 376.986C192.104 378.944 191.322 380.817 189.943 382.196C188.563 383.575 186.698 384.349 184.754 384.349C182.811 384.349 180.946 383.575 179.566 382.196C178.187 380.817 177.405 378.944 177.391 376.986Z" fill="#7EC495"/>
<path fill-rule="evenodd" clip-rule="evenodd" d="M202.195 383.962C202.205 382.622 202.74 381.341 203.684 380.397C204.628 379.453 205.904 378.924 207.234 378.924C208.564 378.924 209.84 379.453 210.784 380.397C211.727 381.341 212.262 382.622 212.272 383.962C212.262 385.301 211.727 386.583 210.784 387.527C209.84 388.47 208.564 389 207.234 389C205.904 389 204.628 388.47 203.684 387.527C202.74 386.583 202.205 385.301 202.195 383.962Z" fill="#F5E0DC"/>
<path fill-rule="evenodd" clip-rule="evenodd" d="M117.704 221.194C117.738 216.557 119.59 212.121 122.857 208.855C126.124 205.588 130.541 203.754 135.145 203.754C139.749 203.754 144.166 205.588 147.433 208.855C150.7 212.121 152.552 216.557 152.586 221.194C152.552 225.831 150.7 230.266 147.433 233.533C144.166 236.8 139.749 238.633 135.145 238.633C130.541 238.633 126.124 236.8 122.857 233.533C119.59 230.266 117.738 225.831 117.704 221.194Z" fill="#CBA6F7"/>
<path fill-rule="evenodd" clip-rule="evenodd" d="M151.811 190.578C151.833 187.487 153.068 184.53 155.246 182.352C157.424 180.174 160.369 178.952 163.438 178.952C166.507 178.952 169.452 180.174 171.63 182.352C173.808 184.53 175.043 187.487 175.065 190.578C175.043 193.669 173.808 196.626 171.63 198.804C169.452 200.982 166.507 202.204 163.438 202.204C160.369 202.204 157.424 200.982 155.246 198.804C153.068 196.626 151.833 193.669 151.811 190.578Z" fill="#EBA0AC"/>
<path fill-rule="evenodd" clip-rule="evenodd" d="M183.592 177.014C183.606 175.056 184.388 173.183 185.767 171.804C187.147 170.425 189.012 169.651 190.956 169.651C192.899 169.651 194.764 170.425 196.144 171.804C197.523 173.183 198.305 175.056 198.32 177.014C198.305 178.972 197.523 180.845 196.144 182.224C194.764 183.603 192.899 184.377 190.956 184.377C189.012 184.377 187.147 183.603 185.767 182.224C184.388 180.845 183.606 178.972 183.592 177.014Z" fill="#FAB387"/>
<path fill-rule="evenodd" clip-rule="evenodd" d="M211.497 174.689C211.507 173.349 212.042 172.068 212.986 171.124C213.93 170.18 215.206 169.651 216.536 169.651C217.865 169.651 219.141 170.18 220.085 171.124C221.029 172.068 221.564 173.349 221.574 174.689C221.564 176.028 221.029 177.31 220.085 178.253C219.141 179.197 217.865 179.727 216.536 179.727C215.206 179.727 213.93 179.197 212.986 178.253C212.042 177.31 211.507 176.028 211.497 174.689Z" fill="#F5E0DC"/>
<path fill-rule="evenodd" clip-rule="evenodd" d="M96 270.799C96.0411 265.132 98.3051 259.711 102.298 255.718C106.291 251.725 111.69 249.484 117.317 249.484C122.943 249.484 128.342 251.725 132.335 255.718C136.328 259.711 138.592 265.132 138.633 270.799C138.592 276.467 136.328 281.888 132.335 285.881C128.342 289.873 122.943 292.114 117.317 292.114C111.69 292.114 106.291 289.873 102.298 285.881C98.3051 281.888 96.0411 276.467 96 270.799V270.799Z" fill="#B4BEFE"/>
<path fill-rule="evenodd" clip-rule="evenodd" d="M157.595 116.615C162.232 116.649 166.668 118.487 169.934 121.729C173.201 124.971 175.035 129.355 175.035 133.923C175.035 138.492 173.201 142.875 169.934 146.117C166.668 149.359 162.232 151.197 157.595 151.231C152.958 151.197 148.523 149.359 145.256 146.117C141.989 142.875 140.156 138.492 140.156 133.923C140.156 129.355 141.989 124.971 145.256 121.729C148.523 118.487 152.958 116.649 157.595 116.615Z" fill="#74C7EC"/>
<path fill-rule="evenodd" clip-rule="evenodd" d="M121.554 148.154C124.851 148.178 128.005 149.485 130.328 151.79C132.651 154.096 133.955 157.213 133.955 160.462C133.955 163.71 132.651 166.827 130.328 169.133C128.005 171.438 124.851 172.745 121.554 172.769C118.256 172.745 115.102 171.438 112.779 169.133C110.456 166.827 109.152 163.71 109.152 160.462C109.152 157.213 110.456 154.096 112.779 151.79C115.102 149.485 118.256 148.178 121.554 148.154Z" fill="#89DCEB"/>
<path fill-rule="evenodd" clip-rule="evenodd" d="M101.014 182.769C102.972 182.783 104.844 183.56 106.224 184.928C107.603 186.297 108.377 188.148 108.377 190.077C108.377 192.006 107.603 193.857 106.224 195.226C104.844 196.594 102.972 197.371 101.014 197.385C99.056 197.371 97.1833 196.594 95.8039 195.226C94.4246 193.857 93.6505 192.006 93.6505 190.077C93.6505 188.148 94.4246 186.297 95.8039 184.928C97.1833 183.56 99.056 182.783 101.014 182.769Z" fill="#7EC495"/>
<path fill-rule="evenodd" clip-rule="evenodd" d="M94.038 207.385C95.3776 207.394 96.659 207.925 97.6027 208.862C98.5465 209.798 99.0761 211.065 99.0761 212.385C99.0761 213.704 98.5465 214.971 97.6027 215.907C96.659 216.844 95.3776 217.375 94.038 217.385C92.6985 217.375 91.4171 216.844 90.4734 215.907C89.5296 214.971 89 213.704 89 212.385C89 211.065 89.5296 209.798 90.4734 208.862C91.4171 207.925 92.6985 207.394 94.038 207.385Z" fill="#F5E0DC"/>
<path fill-rule="evenodd" clip-rule="evenodd" d="M256.806 123.539C261.443 123.572 265.879 125.41 269.145 128.652C272.412 131.895 274.246 136.278 274.246 140.846C274.246 145.415 272.412 149.798 269.145 153.04C265.879 156.282 261.443 158.121 256.806 158.154C252.169 158.121 247.734 156.282 244.467 153.04C241.2 149.798 239.367 145.415 239.367 140.846C239.367 136.278 241.2 131.895 244.467 128.652C247.734 125.41 252.169 123.572 256.806 123.539Z" fill="#CBA6F7"/>
<path fill-rule="evenodd" clip-rule="evenodd" d="M287.422 157.385C290.513 157.407 293.47 158.632 295.648 160.794C297.826 162.955 299.048 165.877 299.048 168.923C299.048 171.969 297.826 174.891 295.648 177.052C293.47 179.214 290.513 180.439 287.422 180.461C284.331 180.439 281.374 179.214 279.196 177.052C277.018 174.891 275.796 171.969 275.796 168.923C275.796 165.877 277.018 162.955 279.196 160.794C281.374 158.632 284.331 157.407 287.422 157.385Z" fill="#EBA0AC"/>
<path fill-rule="evenodd" clip-rule="evenodd" d="M300.986 188.923C302.944 188.937 304.817 189.713 306.196 191.082C307.575 192.451 308.349 194.302 308.349 196.231C308.349 198.16 307.575 200.01 306.196 201.379C304.817 202.748 302.944 203.524 300.986 203.538C299.028 203.524 297.156 202.748 295.776 201.379C294.397 200.01 293.623 198.16 293.623 196.231C293.623 194.302 294.397 192.451 295.776 191.082C297.156 189.713 299.028 188.937 300.986 188.923Z" fill="#FAB387"/>
<path fill-rule="evenodd" clip-rule="evenodd" d="M303.311 216.615C304.651 216.625 305.932 217.156 306.876 218.093C307.82 219.029 308.349 220.296 308.349 221.615C308.349 222.935 307.82 224.202 306.876 225.138C305.932 226.075 304.651 226.606 303.311 226.615C301.972 226.606 300.691 226.075 299.747 225.138C298.803 224.202 298.273 222.935 298.273 221.615C298.273 220.296 298.803 219.029 299.747 218.093C300.691 217.156 301.972 216.625 303.311 216.615Z" fill="#F5E0DC"/>
<path fill-rule="evenodd" clip-rule="evenodd" d="M207.201 102C212.868 102.041 218.289 104.287 222.282 108.25C226.275 112.213 228.516 117.57 228.516 123.154C228.516 128.738 226.275 134.095 222.282 138.058C218.289 142.02 212.868 144.267 207.201 144.308C201.533 144.267 196.112 142.02 192.119 138.058C188.127 134.095 185.886 128.738 185.886 123.154C185.886 117.57 188.127 112.213 192.119 108.25C196.112 104.287 201.533 102.041 207.201 102V102Z" fill="#B4BEFE"/>
<path fill-rule="evenodd" clip-rule="evenodd" d="M365.272 164.595C365.239 169.232 363.386 173.668 360.119 176.934C356.852 180.201 352.435 182.035 347.831 182.035C343.228 182.035 338.811 180.201 335.544 176.934C332.277 173.668 330.424 169.232 330.391 164.595C330.424 159.958 332.277 155.523 335.544 152.256C338.811 148.989 343.228 147.156 347.831 147.156C352.435 147.156 356.852 148.989 360.119 152.256C363.386 155.523 365.239 159.958 365.272 164.595Z" fill="#74C7EC"/>
<path fill-rule="evenodd" clip-rule="evenodd" d="M333.491 128.554C333.467 131.851 332.15 135.005 329.827 137.328C327.503 139.651 324.362 140.955 321.089 140.955C317.815 140.955 314.674 139.651 312.351 137.328C310.028 135.005 308.71 131.851 308.686 128.554C308.71 125.256 310.028 122.102 312.351 119.779C314.674 117.456 317.815 116.152 321.089 116.152C324.362 116.152 327.503 117.456 329.827 119.779C332.15 122.102 333.467 125.256 333.491 128.554Z" fill="#89DCEB"/>
<path fill-rule="evenodd" clip-rule="evenodd" d="M298.609 108.014C298.595 109.972 297.813 111.844 296.434 113.224C295.054 114.603 293.189 115.377 291.246 115.377C289.302 115.377 287.437 114.603 286.057 113.224C284.678 111.844 283.896 109.972 283.882 108.014C283.896 106.056 284.678 104.183 286.057 102.804C287.437 101.425 289.302 100.651 291.246 100.651C293.189 100.651 295.054 101.425 296.434 102.804C297.813 104.183 298.595 106.056 298.609 108.014Z" fill="#7EC495"/>
<path fill-rule="evenodd" clip-rule="evenodd" d="M273.805 101.038C273.795 102.378 273.26 103.659 272.316 104.603C271.372 105.547 270.096 106.076 268.766 106.076C267.436 106.076 266.16 105.547 265.216 104.603C264.273 103.659 263.738 102.378 263.728 101.038C263.738 99.6986 264.273 98.4172 265.216 97.4734C266.16 96.5297 267.436 96 268.766 96C270.096 96 271.372 96.5297 272.316 97.4734C273.26 98.4172 273.795 99.6986 273.805 101.038Z" fill="#F5E0DC"/>
<path fill-rule="evenodd" clip-rule="evenodd" d="M358.296 263.806C358.262 268.443 356.41 272.879 353.143 276.145C349.876 279.412 345.459 281.246 340.855 281.246C336.251 281.246 331.834 279.412 328.567 276.145C325.3 272.879 323.448 268.443 323.414 263.806C323.448 259.169 325.3 254.734 328.567 251.467C331.834 248.2 336.251 246.367 340.855 246.367C345.459 246.367 349.876 248.2 353.143 251.467C356.41 254.734 358.262 259.169 358.296 263.806Z" fill="#CBA6F7"/>
<path fill-rule="evenodd" clip-rule="evenodd" d="M324.189 294.422C324.167 297.513 322.932 300.47 320.754 302.648C318.576 304.826 315.631 306.048 312.562 306.048C309.493 306.048 306.548 304.826 304.37 302.648C302.192 300.47 300.957 297.513 300.935 294.422C300.957 291.331 302.192 288.374 304.37 286.196C306.548 284.018 309.493 282.796 312.562 282.796C315.631 282.796 318.576 284.018 320.754 286.196C322.932 288.374 324.167 291.331 324.189 294.422Z" fill="#EBA0AC"/>
<path fill-rule="evenodd" clip-rule="evenodd" d="M292.408 307.986C292.394 309.944 291.612 311.817 290.233 313.196C288.853 314.575 286.988 315.349 285.044 315.349C283.101 315.349 281.236 314.575 279.856 313.196C278.477 311.817 277.695 309.944 277.68 307.986C277.695 306.028 278.477 304.155 279.856 302.776C281.236 301.397 283.101 300.623 285.044 300.623C286.988 300.623 288.853 301.397 290.233 302.776C291.612 304.155 292.394 306.028 292.408 307.986Z" fill="#FAB387"/>
<path fill-rule="evenodd" clip-rule="evenodd" d="M264.503 310.311C264.493 311.651 263.958 312.932 263.014 313.876C262.07 314.82 260.794 315.349 259.464 315.349C258.135 315.349 256.859 314.82 255.915 313.876C254.971 312.932 254.436 311.651 254.426 310.311C254.436 308.972 254.971 307.69 255.915 306.747C256.859 305.803 258.135 305.273 259.464 305.273C260.794 305.273 262.07 305.803 263.014 306.747C263.958 307.69 264.493 308.972 264.503 310.311Z" fill="#F5E0DC"/>
<path fill-rule="evenodd" clip-rule="evenodd" d="M380 214.201C379.959 219.868 377.695 225.289 373.702 229.282C369.709 233.275 364.31 235.516 358.683 235.516C353.057 235.516 347.658 233.275 343.665 229.282C339.672 225.289 337.408 219.868 337.367 214.201C337.408 208.533 339.672 203.112 343.665 199.119C347.658 195.127 353.057 192.886 358.683 192.886C364.31 192.886 369.709 195.127 373.702 199.119C377.695 203.112 379.959 208.533 380 214.201V214.201Z" fill="#B4BEFE"/>
<path fill-rule="evenodd" clip-rule="evenodd" d="M316.405 368.272C311.768 368.239 307.332 366.386 304.066 363.119C300.799 359.852 298.965 355.435 298.965 350.831C298.965 346.228 300.799 341.811 304.066 338.544C307.332 335.277 311.768 333.424 316.405 333.391C321.042 333.424 325.477 335.277 328.744 338.544C332.011 341.811 333.844 346.228 333.844 350.831C333.844 355.435 332.011 359.852 328.744 363.119C325.477 366.386 321.042 368.239 316.405 368.272Z" fill="#74C7EC"/>
<path fill-rule="evenodd" clip-rule="evenodd" d="M352.446 336.491C349.149 336.467 345.995 335.15 343.672 332.827C341.349 330.503 340.045 327.363 340.045 324.089C340.045 320.815 341.349 317.674 343.672 315.351C345.995 313.028 349.149 311.71 352.446 311.686C355.744 311.71 358.898 313.028 361.221 315.351C363.544 317.674 364.848 320.815 364.848 324.089C364.848 327.363 363.544 330.503 361.221 332.827C358.898 335.15 355.744 336.467 352.446 336.491Z" fill="#89DCEB"/>
<path fill-rule="evenodd" clip-rule="evenodd" d="M372.986 301.609C371.028 301.595 369.156 300.813 367.776 299.434C366.397 298.054 365.623 296.189 365.623 294.245C365.623 292.302 366.397 290.437 367.776 289.057C369.156 287.678 371.028 286.896 372.986 286.882C374.944 286.896 376.817 287.678 378.196 289.057C379.575 290.437 380.349 292.302 380.349 294.245C380.349 296.189 379.575 298.054 378.196 299.434C376.817 300.813 374.944 301.595 372.986 301.609Z" fill="#7EC495"/>
<path fill-rule="evenodd" clip-rule="evenodd" d="M379.962 276.805C378.622 276.795 377.341 276.26 376.397 275.316C375.453 274.372 374.924 273.096 374.924 271.766C374.924 270.436 375.453 269.16 376.397 268.216C377.341 267.273 378.622 266.737 379.962 266.728C381.301 266.737 382.583 267.273 383.527 268.216C384.47 269.16 385 270.436 385 271.766C385 273.096 384.47 274.372 383.527 275.316C382.583 276.26 381.301 276.795 379.962 276.805Z" fill="#F5E0DC"/>
<path fill-rule="evenodd" clip-rule="evenodd" d="M217.194 361.296C212.557 361.262 208.121 359.41 204.855 356.143C201.588 352.876 199.754 348.459 199.754 343.855C199.754 339.251 201.588 334.834 204.855 331.567C208.121 328.3 212.557 326.448 217.194 326.414C221.831 326.448 226.266 328.3 229.533 331.567C232.8 334.834 234.633 339.251 234.633 343.855C234.633 348.459 232.8 352.876 229.533 356.143C226.266 359.41 221.831 361.262 217.194 361.296Z" fill="#CBA6F7"/>
<path fill-rule="evenodd" clip-rule="evenodd" d="M186.578 327.189C183.487 327.167 180.53 325.932 178.352 323.754C176.174 321.576 174.952 318.631 174.952 315.562C174.952 312.493 176.174 309.549 178.352 307.37C180.53 305.192 183.487 303.957 186.578 303.935C189.669 303.957 192.626 305.192 194.804 307.37C196.982 309.549 198.204 312.493 198.204 315.562C198.204 318.631 196.982 321.576 194.804 323.754C192.626 325.932 189.669 327.167 186.578 327.189Z" fill="#EBA0AC"/>
<path fill-rule="evenodd" clip-rule="evenodd" d="M173.014 295.408C171.056 295.394 169.183 294.612 167.804 293.232C166.425 291.853 165.651 289.988 165.651 288.044C165.651 286.101 166.425 284.236 167.804 282.856C169.183 281.477 171.056 280.695 173.014 280.68C174.972 280.695 176.844 281.477 178.224 282.856C179.603 284.236 180.377 286.101 180.377 288.044C180.377 289.988 179.603 291.853 178.224 293.232C176.844 294.612 174.972 295.394 173.014 295.408Z" fill="#FAB387"/>
<path fill-rule="evenodd" clip-rule="evenodd" d="M170.689 267.503C169.349 267.493 168.068 266.958 167.124 266.014C166.18 265.07 165.651 263.794 165.651 262.464C165.651 261.135 166.18 259.859 167.124 258.915C168.068 257.971 169.349 257.436 170.689 257.426C172.028 257.436 173.309 257.971 174.253 258.915C175.197 259.859 175.727 261.135 175.727 262.464C175.727 263.794 175.197 265.07 174.253 266.014C173.309 266.958 172.028 267.493 170.689 267.503Z" fill="#F5E0DC"/>
<path fill-rule="evenodd" clip-rule="evenodd" d="M266.799 383C261.132 382.959 255.711 380.695 251.718 376.702C247.725 372.709 245.484 367.31 245.484 361.683C245.484 356.057 247.725 350.658 251.718 346.665C255.711 342.672 261.132 340.408 266.799 340.367C272.467 340.408 277.888 342.672 281.881 346.665C285.873 350.658 288.114 356.057 288.114 361.683C288.114 367.31 285.873 372.709 281.881 376.702C277.888 380.695 272.467 382.959 266.799 383V383Z" fill="#B4BEFE"/>
<path d="M486.406 220V156.934H507.262C511.617 156.934 515.701 157.76 519.515 159.412C523.329 161.034 526.678 163.301 529.561 166.214C532.444 169.097 534.696 172.446 536.318 176.259C537.969 180.043 538.795 184.113 538.795 188.467C538.795 192.822 537.969 196.906 536.318 200.72C534.696 204.504 532.444 207.852 529.561 210.765C526.678 213.648 523.329 215.916 519.515 217.567C515.701 219.189 511.617 220 507.262 220H486.406ZM493.974 212.432H507.262C510.566 212.432 513.659 211.816 516.542 210.585C519.455 209.324 522.008 207.597 524.2 205.405C526.392 203.213 528.104 200.675 529.335 197.792C530.597 194.879 531.227 191.771 531.227 188.467C531.227 185.164 530.597 182.071 529.335 179.188C528.104 176.274 526.377 173.722 524.155 171.53C521.963 169.337 519.425 167.625 516.542 166.394C513.659 165.133 510.566 164.502 507.262 164.502H493.974V212.432ZM565.966 221.171C561.822 221.171 558.038 220.105 554.614 217.973C551.221 215.841 548.503 212.988 546.461 209.414C544.449 205.81 543.443 201.831 543.443 197.477C543.443 194.173 544.028 191.095 545.2 188.242C546.371 185.359 547.977 182.836 550.02 180.674C552.092 178.482 554.494 176.77 557.227 175.539C559.96 174.307 562.873 173.692 565.966 173.692C570.11 173.692 573.879 174.758 577.273 176.89C580.696 179.022 583.414 181.89 585.426 185.494C587.469 189.098 588.49 193.092 588.49 197.477C588.49 200.75 587.904 203.813 586.733 206.666C585.562 209.519 583.94 212.042 581.868 214.234C579.826 216.396 577.438 218.093 574.705 219.324C572.002 220.556 569.089 221.171 565.966 221.171ZM565.966 213.603C568.789 213.603 571.327 212.868 573.579 211.396C575.861 209.894 577.648 207.927 578.94 205.495C580.261 203.032 580.922 200.36 580.922 197.477C580.922 194.533 580.246 191.831 578.895 189.368C577.573 186.906 575.786 184.939 573.534 183.467C571.282 181.995 568.759 181.26 565.966 181.26C563.143 181.26 560.606 182.01 558.353 183.512C556.101 184.984 554.314 186.951 552.993 189.413C551.671 191.876 551.011 194.564 551.011 197.477C551.011 200.48 551.686 203.213 553.038 205.675C554.389 208.108 556.206 210.045 558.488 211.486C560.771 212.898 563.263 213.603 565.966 213.603ZM614.054 220H606.396L591.305 174.953H598.693L610.315 209.324L621.802 174.953H629.595L641.127 209.324L652.614 174.953H660.092L645.001 220H637.298L625.631 185.314L614.054 220ZM707.206 191.981V220H699.639V193.648C699.639 191.365 699.083 189.293 697.972 187.431C696.861 185.569 695.374 184.098 693.512 183.017C691.65 181.905 689.578 181.35 687.296 181.35C685.043 181.35 682.971 181.905 681.079 183.017C679.217 184.098 677.731 185.569 676.62 187.431C675.508 189.293 674.953 191.365 674.953 193.648V220H667.385V174.953H674.953V180.584C676.545 178.482 678.557 176.815 680.989 175.584C683.422 174.322 686.064 173.692 688.917 173.692C692.281 173.692 695.344 174.518 698.107 176.169C700.9 177.791 703.107 179.983 704.729 182.746C706.381 185.509 707.206 188.587 707.206 191.981ZM716.743 220V152.43H724.311V220H716.743ZM754.512 221.171C750.368 221.171 746.584 220.105 743.16 217.973C739.767 215.841 737.049 212.988 735.007 209.414C732.995 205.81 731.989 201.831 731.989 197.477C731.989 194.173 732.574 191.095 733.745 188.242C734.917 185.359 736.523 182.836 738.565 180.674C740.638 178.482 743.04 176.77 745.773 175.539C748.506 174.307 751.419 173.692 754.512 173.692C758.656 173.692 762.425 174.758 765.819 176.89C769.242 179.022 771.96 181.89 773.972 185.494C776.014 189.098 777.035 193.092 777.035 197.477C777.035 200.75 776.45 203.813 775.279 206.666C774.107 209.519 772.486 212.042 770.414 214.234C768.371 216.396 765.984 218.093 763.251 219.324C760.548 220.556 757.635 221.171 754.512 221.171ZM754.512 213.603C757.335 213.603 759.873 212.868 762.125 211.396C764.407 209.894 766.194 207.927 767.485 205.495C768.807 203.032 769.468 200.36 769.468 197.477C769.468 194.533 768.792 191.831 767.44 189.368C766.119 186.906 764.332 184.939 762.08 183.467C759.828 181.995 757.305 181.26 754.512 181.26C751.689 181.26 749.151 182.01 746.899 183.512C744.647 184.984 742.86 186.951 741.538 189.413C740.217 191.876 739.556 194.564 739.556 197.477C739.556 200.48 740.232 203.213 741.584 205.675C742.935 208.108 744.752 210.045 747.034 211.486C749.317 212.898 751.809 213.603 754.512 213.603ZM820.443 174.953H828.011V220H820.443L820.128 212.387C818.716 215 816.764 217.117 814.272 218.739C811.809 220.36 808.866 221.171 805.442 221.171C802.139 221.171 799.046 220.556 796.163 219.324C793.28 218.063 790.727 216.336 788.505 214.144C786.312 211.922 784.601 209.369 783.369 206.486C782.138 203.603 781.523 200.495 781.523 197.161C781.523 193.948 782.123 190.915 783.324 188.062C784.526 185.209 786.192 182.716 788.325 180.584C790.487 178.422 792.979 176.74 795.802 175.539C798.625 174.307 801.658 173.692 804.902 173.692C808.446 173.692 811.554 174.533 814.227 176.214C816.899 177.866 819.062 180.013 820.713 182.656L820.443 174.953ZM805.307 213.829C808.28 213.829 810.848 213.108 813.01 211.666C815.203 210.195 816.884 208.213 818.056 205.72C819.257 203.228 819.857 200.48 819.857 197.477C819.857 194.413 819.257 191.65 818.056 189.188C816.854 186.695 815.158 184.728 812.965 183.287C810.803 181.815 808.25 181.079 805.307 181.079C802.334 181.079 799.631 181.815 797.199 183.287C794.766 184.758 792.829 186.74 791.388 189.233C789.976 191.696 789.271 194.443 789.271 197.477C789.271 200.51 790.006 203.273 791.478 205.765C792.949 208.228 794.901 210.195 797.334 211.666C799.767 213.108 802.424 213.829 805.307 213.829ZM872.398 152.43H879.965V220H872.398V212.342C870.866 214.985 868.809 217.117 866.226 218.739C863.643 220.36 860.61 221.171 857.127 221.171C853.853 221.171 850.79 220.556 847.937 219.324C845.084 218.093 842.562 216.396 840.369 214.234C838.207 212.042 836.51 209.519 835.279 206.666C834.048 203.813 833.432 200.75 833.432 197.477C833.432 194.203 834.048 191.14 835.279 188.287C836.51 185.404 838.207 182.881 840.369 180.719C842.562 178.527 845.084 176.815 847.937 175.584C850.79 174.352 853.853 173.737 857.127 173.737C860.61 173.737 863.643 174.548 866.226 176.169C868.809 177.791 870.866 179.923 872.398 182.566V152.43ZM857.217 213.829C860.19 213.829 862.758 213.108 864.92 211.666C867.112 210.195 868.794 208.213 869.965 205.72C871.166 203.228 871.767 200.48 871.767 197.477C871.767 194.413 871.166 191.65 869.965 189.188C868.764 186.695 867.067 184.728 864.875 183.287C862.712 181.815 860.16 181.079 857.217 181.079C854.244 181.079 851.541 181.815 849.108 183.287C846.706 184.758 844.784 186.74 843.342 189.233C841.901 191.696 841.18 194.443 841.18 197.477C841.18 200.51 841.916 203.273 843.387 205.765C844.859 208.228 846.811 210.195 849.243 211.666C851.676 213.108 854.334 213.829 857.217 213.829ZM933.542 156.934H942.687L965.616 220H957.597L952.913 207.117H923.317L918.677 220H910.613L933.542 156.934ZM926.11 199.549H950.12L938.092 166.619L926.11 199.549ZM985.279 220.856C982.846 220.766 980.474 220.315 978.161 219.504C975.879 218.664 973.867 217.537 972.125 216.126C970.413 214.684 969.167 213.033 968.386 211.171L974.873 208.378C975.323 209.399 976.134 210.36 977.305 211.261C978.477 212.162 979.828 212.883 981.36 213.423C982.891 213.964 984.438 214.234 985.999 214.234C987.651 214.234 989.198 213.979 990.639 213.468C992.081 212.958 993.252 212.207 994.153 211.216C995.084 210.195 995.549 208.979 995.549 207.567C995.549 206.065 995.039 204.894 994.018 204.053C993.027 203.182 991.765 202.507 990.234 202.026C988.732 201.516 987.201 201.035 985.639 200.585C982.546 199.804 979.783 198.873 977.35 197.792C974.918 196.681 972.996 195.284 971.584 193.603C970.203 191.891 969.512 189.713 969.512 187.071C969.512 184.278 970.278 181.86 971.81 179.818C973.371 177.776 975.413 176.199 977.936 175.088C980.459 173.977 983.161 173.422 986.044 173.422C989.678 173.422 992.997 174.202 996 175.764C999.003 177.326 1001.24 179.443 1002.71 182.116L996.63 185.674C996.12 184.593 995.339 183.647 994.288 182.836C993.237 181.995 992.036 181.335 990.684 180.854C989.333 180.374 987.951 180.118 986.54 180.088C984.798 180.028 983.161 180.254 981.63 180.764C980.128 181.275 978.912 182.056 977.981 183.107C977.08 184.128 976.63 185.404 976.63 186.936C976.63 188.437 977.11 189.578 978.071 190.359C979.062 191.14 980.339 191.771 981.9 192.251C983.492 192.702 985.219 193.227 987.081 193.828C989.813 194.699 992.366 195.705 994.739 196.846C997.111 197.987 999.018 199.414 1000.46 201.125C1001.93 202.837 1002.65 204.954 1002.62 207.477C1002.62 210.24 1001.8 212.657 1000.14 214.73C998.492 216.772 996.345 218.333 993.702 219.414C991.09 220.496 988.282 220.976 985.279 220.856ZM1033.67 182.521H1023.45L1023.4 220H1015.84L1015.88 182.521H1008.13V174.953H1015.88L1015.84 160.808H1023.4L1023.45 174.953H1033.67V182.521ZM1060.43 221.171C1056.28 221.171 1052.5 220.105 1049.07 217.973C1045.68 215.841 1042.96 212.988 1040.92 209.414C1038.91 205.81 1037.9 201.831 1037.9 197.477C1037.9 194.173 1038.49 191.095 1039.66 188.242C1040.83 185.359 1042.44 182.836 1044.48 180.674C1046.55 178.482 1048.95 176.77 1051.69 175.539C1054.42 174.307 1057.33 173.692 1060.43 173.692C1063.82 173.692 1066.93 174.383 1069.75 175.764C1072.6 177.115 1075.04 179.007 1077.05 181.44C1079.09 183.872 1080.61 186.695 1081.6 189.909C1082.62 193.122 1082.99 196.561 1082.72 200.224H1045.97C1046.33 202.777 1047.17 205.059 1048.49 207.072C1049.81 209.054 1051.49 210.63 1053.53 211.801C1055.61 212.973 1057.9 213.573 1060.43 213.603C1063.13 213.603 1065.58 212.913 1067.77 211.531C1069.96 210.12 1071.73 208.198 1073.08 205.765L1080.79 207.567C1078.99 211.561 1076.27 214.835 1072.63 217.387C1069 219.91 1064.93 221.171 1060.43 221.171ZM1045.74 194.278H1075.11C1074.87 191.756 1074.06 189.458 1072.68 187.386C1071.3 185.284 1069.54 183.602 1067.41 182.341C1065.28 181.079 1062.95 180.449 1060.43 180.449C1057.9 180.449 1055.59 181.064 1053.49 182.296C1051.39 183.527 1049.64 185.194 1048.26 187.296C1046.91 189.368 1046.07 191.696 1045.74 194.278ZM1090.32 220V174.953H1097.88V180.584C1099.47 178.482 1101.49 176.815 1103.92 175.584C1106.35 174.322 1108.99 173.692 1111.85 173.692C1113.59 173.692 1115.27 173.917 1116.89 174.368L1113.83 181.935C1112.6 181.545 1111.4 181.35 1110.23 181.35C1107.97 181.35 1105.9 181.905 1104.01 183.017C1102.15 184.098 1100.66 185.569 1099.55 187.431C1098.44 189.293 1097.88 191.365 1097.88 193.648V220H1090.32ZM1122.43 174.953H1130V220H1122.43V174.953ZM1126.3 167.61C1125.1 167.61 1124.1 167.22 1123.28 166.439C1122.47 165.658 1122.07 164.682 1122.07 163.511C1122.07 162.34 1122.47 161.364 1123.28 160.583C1124.1 159.802 1125.09 159.412 1126.26 159.412C1127.43 159.412 1128.42 159.802 1129.23 160.583C1130.04 161.364 1130.45 162.34 1130.45 163.511C1130.45 164.682 1130.04 165.658 1129.23 166.439C1128.45 167.22 1127.47 167.61 1126.3 167.61ZM1176.42 174.953H1183.99V220H1176.42L1176.1 212.387C1174.69 215 1172.74 217.117 1170.25 218.739C1167.78 220.36 1164.84 221.171 1161.42 221.171C1158.11 221.171 1155.02 220.556 1152.14 219.324C1149.26 218.063 1146.7 216.336 1144.48 214.144C1142.29 211.922 1140.58 209.369 1139.35 206.486C1138.11 203.603 1137.5 200.495 1137.5 197.161C1137.5 193.948 1138.1 190.915 1139.3 188.062C1140.5 185.209 1142.17 182.716 1144.3 180.584C1146.46 178.422 1148.96 176.74 1151.78 175.539C1154.6 174.307 1157.63 173.692 1160.88 173.692C1164.42 173.692 1167.53 174.533 1170.2 176.214C1172.88 177.866 1175.04 180.013 1176.69 182.656L1176.42 174.953ZM1161.28 213.829C1164.26 213.829 1166.82 213.108 1168.99 211.666C1171.18 210.195 1172.86 208.213 1174.03 205.72C1175.23 203.228 1175.83 200.48 1175.83 197.477C1175.83 194.413 1175.23 191.65 1174.03 189.188C1172.83 186.695 1171.13 184.728 1168.94 183.287C1166.78 181.815 1164.23 181.079 1161.28 181.079C1158.31 181.079 1155.61 181.815 1153.17 183.287C1150.74 184.758 1148.81 186.74 1147.36 189.233C1145.95 191.696 1145.25 194.443 1145.25 197.477C1145.25 200.51 1145.98 203.273 1147.45 205.765C1148.93 208.228 1150.88 210.195 1153.31 211.666C1155.74 213.108 1158.4 213.829 1161.28 213.829ZM1224.86 163.827V174.953H1238.06V182.521H1224.86V220H1217.29V182.521H1211.48V174.953H1217.29V163.827C1217.29 161.514 1217.85 159.427 1218.96 157.565C1220.1 155.673 1221.62 154.171 1223.51 153.06C1225.43 151.919 1227.53 151.349 1229.81 151.349C1231.5 151.349 1233.13 151.694 1234.73 152.385C1236.32 153.045 1237.73 154.036 1238.96 155.358L1233.55 160.718C1233.13 160.148 1232.58 159.712 1231.89 159.412C1231.23 159.082 1230.54 158.916 1229.81 158.916C1228.46 158.916 1227.29 159.397 1226.3 160.358C1225.34 161.319 1224.86 162.475 1224.86 163.827ZM1246.48 220V174.953H1254.05V180.584C1255.64 178.482 1257.66 176.815 1260.09 175.584C1262.52 174.322 1265.16 173.692 1268.02 173.692C1269.76 173.692 1271.44 173.917 1273.06 174.368L1270 181.935C1268.77 181.545 1267.57 181.35 1266.39 181.35C1264.14 181.35 1262.07 181.905 1260.18 183.017C1258.32 184.098 1256.83 185.569 1255.72 187.431C1254.61 189.293 1254.05 191.365 1254.05 193.648V220H1246.48ZM1296.13 221.171C1291.99 221.171 1288.2 220.105 1284.78 217.973C1281.38 215.841 1278.67 212.988 1276.63 209.414C1274.61 205.81 1273.61 201.831 1273.61 197.477C1273.61 194.173 1274.19 191.095 1275.36 188.242C1276.53 185.359 1278.14 182.836 1280.18 180.674C1282.26 178.482 1284.66 176.77 1287.39 175.539C1290.12 174.307 1293.04 173.692 1296.13 173.692C1300.27 173.692 1304.04 174.758 1307.44 176.89C1310.86 179.022 1313.58 181.89 1315.59 185.494C1317.63 189.098 1318.65 193.092 1318.65 197.477C1318.65 200.75 1318.07 203.813 1316.9 206.666C1315.73 209.519 1314.1 212.042 1312.03 214.234C1309.99 216.396 1307.6 218.093 1304.87 219.324C1302.17 220.556 1299.25 221.171 1296.13 221.171ZM1296.13 213.603C1298.95 213.603 1301.49 212.868 1303.74 211.396C1306.03 209.894 1307.81 207.927 1309.1 205.495C1310.43 203.032 1311.09 200.36 1311.09 197.477C1311.09 194.533 1310.41 191.831 1309.06 189.368C1307.74 186.906 1305.95 184.939 1303.7 183.467C1301.45 181.995 1298.92 181.26 1296.13 181.26C1293.31 181.26 1290.77 182.01 1288.52 183.512C1286.27 184.984 1284.48 186.951 1283.16 189.413C1281.84 191.876 1281.17 194.564 1281.17 197.477C1281.17 200.48 1281.85 203.213 1283.2 205.675C1284.55 208.108 1286.37 210.045 1288.65 211.486C1290.93 212.898 1293.43 213.603 1296.13 213.603ZM1326.11 220V174.953H1333.68V180.584C1335.27 178.482 1337.26 176.815 1339.67 175.584C1342.1 174.322 1344.74 173.692 1347.59 173.692C1350.93 173.692 1353.98 174.503 1356.74 176.124C1359.5 177.746 1361.68 179.893 1363.27 182.566C1364.86 179.893 1367.03 177.746 1369.76 176.124C1372.52 174.503 1375.55 173.692 1378.86 173.692C1382.25 173.692 1385.33 174.518 1388.09 176.169C1390.85 177.791 1393.05 179.983 1394.67 182.746C1396.32 185.509 1397.15 188.587 1397.15 191.981V220H1389.58V193.783C1389.58 191.56 1389.04 189.503 1387.96 187.611C1386.88 185.719 1385.42 184.203 1383.59 183.062C1381.76 181.92 1379.73 181.35 1377.51 181.35C1375.28 181.35 1373.26 181.89 1371.42 182.971C1369.59 184.023 1368.14 185.494 1367.06 187.386C1365.97 189.248 1365.43 191.38 1365.43 193.783V220H1357.87V193.783C1357.87 191.38 1357.33 189.248 1356.24 187.386C1355.16 185.494 1353.69 184.023 1351.83 182.971C1350 181.89 1347.97 181.35 1345.75 181.35C1343.56 181.35 1341.53 181.92 1339.67 183.062C1337.83 184.203 1336.38 185.719 1335.3 187.611C1334.22 189.503 1333.68 191.56 1333.68 193.783V220H1326.11Z" fill="#F5E0DC"/>
<path d="M495.055 329.171C492.832 329.171 490.655 328.796 488.523 328.045C486.421 327.294 484.514 326.183 482.802 324.712L488.793 317.504C489.544 318.135 490.445 318.675 491.496 319.126C492.547 319.576 493.733 319.801 495.055 319.801C496.857 319.801 498.493 319.336 499.965 318.405C501.466 317.444 502.668 316.198 503.568 314.666C504.469 313.104 504.92 311.438 504.92 309.666V264.934H514.29V309.666C514.29 313.18 513.419 316.423 511.677 319.396C509.935 322.339 507.608 324.712 504.695 326.513C501.812 328.285 498.598 329.171 495.055 329.171ZM544.938 329.171C540.794 329.171 537.01 328.105 533.587 325.973C530.193 323.841 527.475 320.988 525.433 317.414C523.421 313.81 522.415 309.831 522.415 305.477C522.415 302.173 523.001 299.095 524.172 296.242C525.343 293.359 526.95 290.836 528.992 288.674C531.064 286.482 533.466 284.77 536.199 283.539C538.932 282.307 541.845 281.692 544.938 281.692C548.392 281.692 551.56 282.413 554.443 283.854C557.326 285.266 559.789 287.233 561.831 289.755C563.873 292.248 565.375 295.131 566.336 298.404C567.297 301.648 567.582 305.101 567.192 308.765H532.46C532.851 310.837 533.602 312.714 534.713 314.396C535.854 316.048 537.295 317.354 539.037 318.315C540.809 319.276 542.776 319.771 544.938 319.801C547.221 319.801 549.293 319.231 551.155 318.09C553.047 316.948 554.593 315.372 555.795 313.36L565.3 315.567C563.498 319.561 560.78 322.835 557.146 325.387C553.512 327.91 549.443 329.171 544.938 329.171ZM532.145 301.603H557.732C557.431 299.44 556.666 297.488 555.434 295.746C554.233 293.975 552.717 292.578 550.885 291.557C549.083 290.506 547.101 289.98 544.938 289.98C542.806 289.98 540.824 290.491 538.992 291.512C537.19 292.533 535.689 293.93 534.488 295.701C533.316 297.443 532.536 299.41 532.145 301.603ZM598.173 292.323H588.713L588.668 328H579.298L579.343 292.323H572.181V282.953H579.343L579.298 268.808H588.668L588.713 282.953H598.173V292.323ZM629.662 281.692C634.046 281.692 638.025 282.758 641.599 284.89C645.203 287.022 648.071 289.89 650.203 293.494C652.335 297.068 653.401 301.047 653.401 305.432C653.401 308.705 652.786 311.783 651.555 314.666C650.323 317.519 648.611 320.042 646.419 322.234C644.257 324.396 641.734 326.093 638.851 327.324C635.998 328.556 632.935 329.171 629.662 329.171C626.508 329.171 623.746 328.45 621.373 327.009C619.031 325.537 617.109 323.66 615.607 321.378V328H606.237V260.43H615.607V289.485C617.109 287.173 619.031 285.296 621.373 283.854C623.746 282.413 626.508 281.692 629.662 281.692ZM629.572 320.072C632.184 320.072 634.572 319.411 636.734 318.09C638.896 316.768 640.608 314.996 641.869 312.774C643.161 310.552 643.806 308.104 643.806 305.432C643.806 302.699 643.161 300.221 641.869 297.999C640.578 295.776 638.851 294.02 636.689 292.728C634.527 291.407 632.154 290.746 629.572 290.746C626.959 290.746 624.662 291.407 622.679 292.728C620.697 294.05 619.151 295.822 618.04 298.044C616.928 300.266 616.373 302.729 616.373 305.432C616.373 308.134 616.928 310.597 618.04 312.819C619.151 315.042 620.697 316.813 622.679 318.135C624.662 319.426 626.959 320.072 629.572 320.072ZM660.698 328V282.953H670.068V287.728C671.63 285.866 673.552 284.395 675.834 283.313C678.116 282.232 680.579 281.692 683.222 281.692C684.904 281.692 686.57 281.917 688.222 282.368L684.483 291.827C683.312 291.377 682.141 291.152 680.969 291.152C678.987 291.152 677.17 291.647 675.519 292.638C673.867 293.599 672.546 294.906 671.555 296.557C670.564 298.209 670.068 300.041 670.068 302.053V328H660.698ZM726.363 282.953H735.732V328H726.318L725.957 321.468C724.636 323.781 722.849 325.643 720.597 327.054C718.344 328.465 715.686 329.171 712.623 329.171C709.32 329.171 706.212 328.556 703.299 327.324C700.386 326.063 697.818 324.321 695.596 322.099C693.403 319.877 691.692 317.324 690.46 314.441C689.229 311.528 688.613 308.405 688.613 305.071C688.613 301.858 689.214 298.84 690.415 296.017C691.616 293.164 693.283 290.671 695.415 288.539C697.548 286.407 700.01 284.74 702.803 283.539C705.626 282.307 708.644 281.692 711.858 281.692C715.131 281.692 718.014 282.443 720.507 283.944C723.029 285.416 725.116 287.308 726.768 289.62L726.363 282.953ZM712.398 320.117C715.041 320.117 717.353 319.471 719.335 318.18C721.317 316.858 722.849 315.087 723.93 312.864C725.041 310.642 725.597 308.179 725.597 305.477C725.597 302.744 725.041 300.266 723.93 298.044C722.819 295.822 721.272 294.065 719.29 292.773C717.338 291.452 715.041 290.791 712.398 290.791C709.785 290.791 707.398 291.452 705.236 292.773C703.073 294.095 701.362 295.867 700.1 298.089C698.839 300.311 698.208 302.774 698.208 305.477C698.208 308.209 698.854 310.687 700.145 312.909C701.467 315.102 703.193 316.858 705.326 318.18C707.488 319.471 709.845 320.117 712.398 320.117ZM744.721 282.953H754.091V328H744.721V282.953ZM749.496 276.421C748.055 276.421 746.854 275.956 745.893 275.025C744.932 274.094 744.451 272.923 744.451 271.511C744.451 270.13 744.932 268.974 745.893 268.043C746.854 267.082 748.04 266.601 749.451 266.601C750.833 266.601 752.004 267.082 752.965 268.043C753.926 268.974 754.406 270.13 754.406 271.511C754.406 272.923 753.926 274.094 752.965 275.025C752.034 275.956 750.878 276.421 749.496 276.421ZM805.06 299.756V328H795.69V302.053C795.69 300.041 795.194 298.209 794.203 296.557C793.242 294.906 791.936 293.599 790.284 292.638C788.662 291.647 786.831 291.152 784.788 291.152C782.806 291.152 780.989 291.647 779.338 292.638C777.686 293.599 776.365 294.906 775.374 296.557C774.383 298.209 773.887 300.041 773.887 302.053V328H764.517V282.953H773.887V287.728C775.449 285.866 777.371 284.395 779.653 283.313C781.935 282.232 784.398 281.692 787.041 281.692C790.374 281.692 793.407 282.503 796.14 284.124C798.873 285.746 801.035 287.923 802.627 290.656C804.249 293.389 805.06 296.422 805.06 299.756ZM827.565 328.856C825.193 328.706 822.88 328.225 820.628 327.414C818.376 326.604 816.394 325.507 814.682 324.126C813 322.714 811.739 321.063 810.898 319.171L818.871 315.747C819.262 316.558 819.937 317.354 820.898 318.135C821.889 318.916 823.046 319.561 824.367 320.072C825.688 320.552 827.07 320.792 828.511 320.792C829.923 320.792 831.229 320.597 832.43 320.207C833.662 319.786 834.668 319.156 835.449 318.315C836.229 317.474 836.62 316.468 836.62 315.297C836.62 313.975 836.169 312.954 835.268 312.234C834.397 311.483 833.301 310.912 831.98 310.522C830.659 310.131 829.337 309.756 828.016 309.396C825.073 308.735 822.37 307.834 819.907 306.693C817.475 305.522 815.538 304.035 814.096 302.233C812.655 300.401 811.934 298.164 811.934 295.521C811.934 292.638 812.715 290.146 814.277 288.043C815.838 285.911 817.88 284.274 820.403 283.133C822.956 281.992 825.673 281.422 828.556 281.422C832.16 281.422 835.464 282.187 838.467 283.719C841.47 285.251 843.767 287.353 845.359 290.025L837.926 294.44C837.476 293.539 836.8 292.728 835.899 292.008C834.998 291.287 833.977 290.716 832.836 290.296C831.695 289.845 830.508 289.59 829.277 289.53C827.746 289.47 826.319 289.65 824.998 290.071C823.706 290.461 822.67 291.092 821.889 291.962C821.109 292.833 820.718 293.945 820.718 295.296C820.718 296.617 821.184 297.608 822.115 298.269C823.046 298.9 824.217 299.41 825.628 299.801C827.07 300.191 828.541 300.627 830.043 301.107C832.716 301.948 835.223 302.984 837.566 304.215C839.908 305.416 841.8 306.903 843.242 308.675C844.683 310.447 845.374 312.609 845.314 315.162C845.314 317.985 844.458 320.462 842.746 322.594C841.064 324.727 838.872 326.348 836.169 327.459C833.466 328.571 830.599 329.036 827.565 328.856ZM874.671 328L886.879 264.934H894.447L910.618 307.414L926.7 264.934H934.268L946.521 328H936.971L928.817 285.791L913.727 325.613H907.42L892.374 285.791L884.221 328H874.671ZM988.022 282.953H997.391V328H987.977L987.616 321.468C986.295 323.781 984.508 325.643 982.256 327.054C980.003 328.465 977.346 329.171 974.282 329.171C970.979 329.171 967.871 328.556 964.958 327.324C962.045 326.063 959.477 324.321 957.255 322.099C955.062 319.877 953.351 317.324 952.119 314.441C950.888 311.528 950.272 308.405 950.272 305.071C950.272 301.858 950.873 298.84 952.074 296.017C953.275 293.164 954.942 290.671 957.074 288.539C959.207 286.407 961.669 284.74 964.462 283.539C967.285 282.307 970.303 281.692 973.517 281.692C976.79 281.692 979.673 282.443 982.166 283.944C984.688 285.416 986.775 287.308 988.427 289.62L988.022 282.953ZM974.057 320.117C976.7 320.117 979.012 319.471 980.994 318.18C982.976 316.858 984.508 315.087 985.589 312.864C986.7 310.642 987.256 308.179 987.256 305.477C987.256 302.744 986.7 300.266 985.589 298.044C984.478 295.822 982.931 294.065 980.949 292.773C978.997 291.452 976.7 290.791 974.057 290.791C971.444 290.791 969.057 291.452 966.895 292.773C964.732 294.095 963.021 295.867 961.759 298.089C960.498 300.311 959.867 302.774 959.867 305.477C959.867 308.209 960.513 310.687 961.804 312.909C963.126 315.102 964.853 316.858 966.985 318.18C969.147 319.471 971.504 320.117 974.057 320.117ZM1006.38 328V282.953H1015.75V287.728C1017.31 285.866 1019.23 284.395 1021.52 283.313C1023.8 282.232 1026.26 281.692 1028.9 281.692C1030.59 281.692 1032.25 281.917 1033.9 282.368L1030.17 291.827C1028.99 291.377 1027.82 291.152 1026.65 291.152C1024.67 291.152 1022.85 291.647 1021.2 292.638C1019.55 293.599 1018.23 294.906 1017.24 296.557C1016.25 298.209 1015.75 300.041 1015.75 302.053V328H1006.38ZM1077.54 328H1066.73L1055.64 308.9L1048.39 317.549V328H1039.02V260.43H1048.39V302.999L1065.15 282.953H1077.4L1062.04 301.287L1077.54 328ZM1101.95 329.171C1097.81 329.171 1094.03 328.105 1090.6 325.973C1087.21 323.841 1084.49 320.988 1082.45 317.414C1080.44 313.81 1079.43 309.831 1079.43 305.477C1079.43 302.173 1080.02 299.095 1081.19 296.242C1082.36 293.359 1083.96 290.836 1086.01 288.674C1088.08 286.482 1090.48 284.77 1093.21 283.539C1095.95 282.307 1098.86 281.692 1101.95 281.692C1105.41 281.692 1108.58 282.413 1111.46 283.854C1114.34 285.266 1116.8 287.233 1118.85 289.755C1120.89 292.248 1122.39 295.131 1123.35 298.404C1124.31 301.648 1124.6 305.101 1124.21 308.765H1089.48C1089.87 310.837 1090.62 312.714 1091.73 314.396C1092.87 316.048 1094.31 317.354 1096.05 318.315C1097.82 319.276 1099.79 319.771 1101.95 319.801C1104.24 319.801 1106.31 319.231 1108.17 318.09C1110.06 316.948 1111.61 315.372 1112.81 313.36L1122.31 315.567C1120.51 319.561 1117.8 322.835 1114.16 325.387C1110.53 327.91 1106.46 329.171 1101.95 329.171ZM1089.16 301.603H1114.75C1114.45 299.44 1113.68 297.488 1112.45 295.746C1111.25 293.975 1109.73 292.578 1107.9 291.557C1106.1 290.506 1104.12 289.98 1101.95 289.98C1099.82 289.98 1097.84 290.491 1096.01 291.512C1094.21 292.533 1092.7 293.93 1091.5 295.701C1090.33 297.443 1089.55 299.41 1089.16 301.603ZM1155.19 292.323H1145.73L1145.68 328H1136.31L1136.36 292.323H1129.2V282.953H1136.36L1136.31 268.808H1145.68L1145.73 282.953H1155.19V292.323ZM1171.3 350.523H1161.93V282.953H1171.3V289.575C1172.8 287.263 1174.73 285.386 1177.07 283.944C1179.41 282.503 1182.17 281.782 1185.36 281.782C1188.63 281.782 1191.69 282.398 1194.55 283.629C1197.43 284.86 1199.95 286.572 1202.11 288.764C1204.28 290.926 1205.97 293.434 1207.2 296.287C1208.44 299.14 1209.05 302.203 1209.05 305.477C1209.05 308.75 1208.44 311.828 1207.2 314.711C1205.97 317.594 1204.28 320.132 1202.11 322.324C1199.95 324.486 1197.43 326.183 1194.55 327.414C1191.69 328.646 1188.63 329.261 1185.36 329.261C1182.17 329.261 1179.41 328.541 1177.07 327.099C1174.73 325.628 1172.8 323.751 1171.3 321.468V350.523ZM1185.27 290.836C1182.65 290.836 1180.36 291.497 1178.37 292.818C1176.39 294.14 1174.85 295.912 1173.74 298.134C1172.62 300.326 1172.07 302.774 1172.07 305.477C1172.07 308.179 1172.62 310.642 1173.74 312.864C1174.85 315.087 1176.39 316.858 1178.37 318.18C1180.36 319.501 1182.65 320.162 1185.27 320.162C1187.85 320.162 1190.22 319.516 1192.38 318.225C1194.55 316.903 1196.27 315.132 1197.56 312.909C1198.86 310.687 1199.5 308.209 1199.5 305.477C1199.5 302.804 1198.86 300.356 1197.56 298.134C1196.3 295.912 1194.59 294.14 1192.43 292.818C1190.27 291.497 1187.88 290.836 1185.27 290.836ZM1215.78 328V260.43H1225.15V328H1215.78ZM1270.36 282.953H1279.73V328H1270.31L1269.95 321.468C1268.63 323.781 1266.84 325.643 1264.59 327.054C1262.34 328.465 1259.68 329.171 1256.62 329.171C1253.31 329.171 1250.21 328.556 1247.29 327.324C1244.38 326.063 1241.81 324.321 1239.59 322.099C1237.4 319.877 1235.69 317.324 1234.45 314.441C1233.22 311.528 1232.61 308.405 1232.61 305.071C1232.61 301.858 1233.21 298.84 1234.41 296.017C1235.61 293.164 1237.28 290.671 1239.41 288.539C1241.54 286.407 1244 284.74 1246.8 283.539C1249.62 282.307 1252.64 281.692 1255.85 281.692C1259.12 281.692 1262.01 282.443 1264.5 283.944C1267.02 285.416 1269.11 287.308 1270.76 289.62L1270.36 282.953ZM1256.39 320.117C1259.03 320.117 1261.35 319.471 1263.33 318.18C1265.31 316.858 1266.84 315.087 1267.92 312.864C1269.04 310.642 1269.59 308.179 1269.59 305.477C1269.59 302.744 1269.04 300.266 1267.92 298.044C1266.81 295.822 1265.27 294.065 1263.28 292.773C1261.33 291.452 1259.03 290.791 1256.39 290.791C1253.78 290.791 1251.39 291.452 1249.23 292.773C1247.07 294.095 1245.36 295.867 1244.09 298.089C1242.83 300.311 1242.2 302.774 1242.2 305.477C1242.2 308.209 1242.85 310.687 1244.14 312.909C1245.46 315.102 1247.19 316.858 1249.32 318.18C1251.48 319.471 1253.84 320.117 1256.39 320.117ZM1317.25 315.207L1325.63 319.756C1323.59 322.609 1320.99 324.892 1317.84 326.604C1314.71 328.315 1311.32 329.171 1307.66 329.171C1303.51 329.171 1299.73 328.105 1296.3 325.973C1292.91 323.841 1290.19 320.988 1288.15 317.414C1286.14 313.81 1285.13 309.831 1285.13 305.477C1285.13 302.173 1285.72 299.095 1286.89 296.242C1288.06 293.359 1289.67 290.836 1291.71 288.674C1293.78 286.482 1296.18 284.77 1298.92 283.539C1301.65 282.307 1304.56 281.692 1307.66 281.692C1311.32 281.692 1314.71 282.548 1317.84 284.259C1320.99 285.971 1323.59 288.269 1325.63 291.152L1317.25 295.701C1315.99 294.2 1314.52 293.059 1312.84 292.278C1311.15 291.467 1309.43 291.062 1307.66 291.062C1305.19 291.062 1302.96 291.737 1300.94 293.089C1298.96 294.41 1297.39 296.167 1296.21 298.359C1295.07 300.521 1294.5 302.894 1294.5 305.477C1294.5 308.029 1295.09 310.402 1296.26 312.594C1297.43 314.756 1299.01 316.498 1300.99 317.819C1303 319.141 1305.22 319.801 1307.66 319.801C1309.52 319.801 1311.29 319.381 1312.97 318.54C1314.65 317.699 1316.08 316.588 1317.25 315.207ZM1352.44 329.171C1348.29 329.171 1344.51 328.105 1341.09 325.973C1337.69 323.841 1334.98 320.988 1332.93 317.414C1330.92 313.81 1329.92 309.831 1329.92 305.477C1329.92 302.173 1330.5 299.095 1331.67 296.242C1332.84 293.359 1334.45 290.836 1336.49 288.674C1338.56 286.482 1340.97 284.77 1343.7 283.539C1346.43 282.307 1349.35 281.692 1352.44 281.692C1355.89 281.692 1359.06 282.413 1361.94 283.854C1364.83 285.266 1367.29 287.233 1369.33 289.755C1371.37 292.248 1372.88 295.131 1373.84 298.404C1374.8 301.648 1375.08 305.101 1374.69 308.765H1339.96C1340.35 310.837 1341.1 312.714 1342.21 314.396C1343.35 316.048 1344.8 317.354 1346.54 318.315C1348.31 319.276 1350.28 319.771 1352.44 319.801C1354.72 319.801 1356.79 319.231 1358.66 318.09C1360.55 316.948 1362.09 315.372 1363.3 313.36L1372.8 315.567C1371 319.561 1368.28 322.835 1364.65 325.387C1361.01 327.91 1356.94 329.171 1352.44 329.171ZM1339.65 301.603H1365.23C1364.93 299.44 1364.17 297.488 1362.93 295.746C1361.73 293.975 1360.22 292.578 1358.39 291.557C1356.58 290.506 1354.6 289.98 1352.44 289.98C1350.31 289.98 1348.32 290.491 1346.49 291.512C1344.69 292.533 1343.19 293.93 1341.99 295.701C1340.82 297.443 1340.04 299.41 1339.65 301.603Z" fill="#CBA6F7"/>
<path d="M481 333.631H1159.68V335.883H481V333.631ZM1173.56 333.631H1377.58V335.883H1173.56V333.631Z" fill="#CBA6F7"/>
</svg>
